<?xml version="1.0" encoding="utf-8"?>
<!-- Generator: Adobe Illustrator 21.0.0, SVG Export Plug-In . SVG Version: 6.00 Build 0)  -->
<svg version="1.1" id="Layer_1" xmlns="http://www.w3.org/2000/svg" xmlns:xlink="http://www.w3.org/1999/xlink" x="0px" y="0px"
	 width="2000px" height="2000px" viewBox="0 0 2000 2000" style="enable-background:new 0 0 2000 2000;" xml:space="preserve">
<style type="text/css">
	.st0{fill:#38B9DB;}
</style>
<path id="Forma_1" class="st0" d="M1122.9,1021.4l-100.5-100.5c-30.5-30.3-79.8-30.3-110.2,0l-479.6,479.4
	c-6.5,6.5-26.1,26.1-17.2,47.4c2.3,5.5,9.9,18.4,30.9,18.4c6.6,0,14.1-1.2,23-3.8l397-115.5c32.7-9.5,77.2-35.8,101.3-59.9
	l155.3-155.3C1153.3,1101.2,1153.3,1051.9,1122.9,1021.4z M1472.8,1543H535c-12.8,0-23.1-10.3-23.1-23.1c0-12.8,10.3-23.1,23.1-23.1
	c0,0,0,0,0.1,0h937.8c12.8,0,23.1,10.3,23.1,23.1S1485.7,1543,1472.8,1543C1472.9,1543,1472.9,1543,1472.8,1543z M1570.6,622.3
	l-149-149c-21.9-21.8-57.3-21.8-79.2,0l-311.3,311.2c-21.8,21.9-21.8,57.3,0,79.2l149,149c21.9,21.8,57.3,21.8,79.2,0l311.3-311.2
	C1592.5,679.6,1592.5,644.2,1570.6,622.3z M1431.7,643.8l-228.8,230.9c-9,9.1-23.6,9.1-32.7,0.2c-9.1-9-9.1-23.6-0.2-32.7
	l228.8-230.9c9-9,23.6-9.1,32.7-0.1C1440.5,620.2,1440.6,634.7,1431.7,643.8L1431.7,643.8z"/>
</svg>
