<?xml version="1.0" encoding="utf-8"?>
<!-- Generator: Adobe Illustrator 21.0.0, SVG Export Plug-In . SVG Version: 6.00 Build 0)  -->
<svg version="1.1" xmlns="http://www.w3.org/2000/svg" xmlns:xlink="http://www.w3.org/1999/xlink" x="0px" y="0px" width="2000px"
	 height="2000px" viewBox="0 0 2000 2000" style="enable-background:new 0 0 2000 2000;" xml:space="preserve">
<style type="text/css">
	.st0{fill:#38B9DB;}
	.st1{display:none;}
</style>
<g id="Layer_1">
	<g>
		<path class="st0" d="M961.3,1582.2c159.2,0,288.3-129,288.3-288.3S961.3,841.2,961.3,841.2L961.3,1582.2L961.3,1582.2z"/>
		<path class="st0" d="M1105.4,738.3c0.2,90.8,73.7,164.5,164.8,164.8V469.6C1181.5,575.8,1105.4,691.3,1105.4,738.3z"/>
		<path class="st0" d="M1270.1,469.6V903c90.8,0,164.5-73.7,164.8-164.8C1434.7,694.8,1363.4,581.3,1270.1,469.6z"/>
		<path class="st0" d="M974.1,536.6c-21.2-41.6-46.1-81.5-74.5-118.8v217.6c34.3,0,65.1-21.4,77.2-53.5
			C982.1,567,981.1,550.7,974.1,536.6z"/>
		<path class="st0" d="M899.6,635.4V417.8c-28.2,37.2-53.1,76.6-74.5,117.8c-6.9,14.1-8,30.4-2.9,45.3
			C833.9,613.5,864.9,635.4,899.6,635.4z"/>
		<path class="st0" d="M673.2,1294c0,159.2,129,288.3,288.3,288.3V841.2C961.3,841.2,673.2,1134.9,673.2,1294z M940.6,1479.3
			c-102.3-0.2-185.2-83.1-185.4-185.4h41.4c0.2,79.6,64.5,143.9,144.1,144.1v41.2H940.6z"/>
	</g>
</g>
<g id="Layer_2" class="st1">
</g>
</svg>
