<?xml version="1.0" encoding="utf-8"?>
<!-- Generator: Adobe Illustrator 21.0.0, SVG Export Plug-In . SVG Version: 6.00 Build 0)  -->
<svg version="1.1" id="Layer_1" xmlns="http://www.w3.org/2000/svg" xmlns:xlink="http://www.w3.org/1999/xlink" x="0px" y="0px"
	 width="2000px" height="2000px" viewBox="0 0 2000 2000" style="enable-background:new 0 0 2000 2000;" xml:space="preserve">
<style type="text/css">
	.st0{fill:#38B9DB;}
</style>
<g id="Layer_1_1_">
	<path class="st0" d="M3418.6,577.8c-59.4,4.4-181.7,10.4-332.7,2.1c-16.7-0.9-32.5,6.1-42.9,19.1c-16.3-14.9-37.4-24.6-60.3-26.9
		c-25.1-2.5-50.1-5.1-74.5-8.3c18.4-37.2,37.2-97.9,8.3-159c-14.1-29.7-18.8-60.8-14.6-92.4c4.9-35.8-23.7-68.3-61.5-65.4
		c-22.3,1.8-41.6,16.2-49.4,37.1c-17.7,48-13.2,88.5,18.1,161.1c11.1,25.5-9.8,75.9-28.1,107.2c-351.4-5.3-438,269-363,606.5
		c4.7,21.6,21.3,39.2,44.3,44.6c15.6,14.6,252.1,58,486.8-47.4l2.6,228.4c0,5.1,2.3,10,6,13.4c24.8,22.3,57.8,22.3,82.6,0
		c3.9-3.3,6-8.3,6-13.4l3.3-283c96.4-62.2,181.5-147.2,252.8-253.3c74-68,129.1-144.6,160.9-194.5
		C3485.3,619.3,3459,574.8,3418.6,577.8L3418.6,577.8z M2821.6,553.9c16.3-31.8,37.4-85,21.1-123.3c-20.9-48.3-34.6-87.3-17.4-133.9
		c5.3-14.2,24.4-18.3,35-7c10.7,11.4,2.5,18.1,3.9,52.5c1.1,26.7,7.6,53.2,19.3,78c25.5,54.1,2.5,109.6-13.9,138.3
		C2855.2,556.9,2837.6,555.2,2821.6,553.9L2821.6,553.9z M2453.7,1150.7c-33.9-152.1-44.3-355.1,61.5-469.6
		c88.2-95.6,232.6-102.6,361.6-84.7c33.2,4.6,67.6,8.6,102.4,11.9c24.1,2.3,45.3,17.6,55.2,39.7c31.8,71,56.6,156,60.3,233.7
		c1.6,33.6-22.5,63.4-55,69.2c-21.3,4-112.6,15.5-228.7,52.2c-159.7,50.6-265.5,117.7-322,160.6
		C2476,1173.6,2457.2,1166.7,2453.7,1150.7L2453.7,1150.7z M3010.1,1374.7c-7.2,4.2-14.6,4.2-22,0l-2.8-236.3
		c10.5-5.4,22.5-12.1,27.6-14.9L3010.1,1374.7z M3192.6,930.4c-181.1,202.7-426.7,283-665.3,250.5
		c237.9-169.9,503.3-184.5,540.9-200.6c20.2-8.6,36.9-23.4,48-41.6c15.8,11.8,36.9,13.4,54.3,4.2
		C3170.7,942.9,3185.8,934.5,3192.6,930.4z M3432.8,633.7c-68.9,107.5-166,217-279.3,276.9c-6.3,3.3-13.7,1.6-18.1-3.5
		c-8.6-10,2.6-35.8-19.1-130.7c-10.9-48-27.1-95-46.7-139.3c-4.4-10,3.2-21.4,14.2-20.7c153,8.4,277,2.3,337.5-2.1
		C3431.6,613.3,3438.4,624.9,3432.8,633.7L3432.8,633.7z"/>
</g>
<path class="st0" d="M1497.4,761.5c-85.9,6.3-206.8,9.6-341.5,2.2c-25.1-1.4-42.8,24.2-32.6,47.2c28.8,65.1,59.7,157.7,62,258.5
	c0.6,25,27.2,40.7,49.3,29.1c140.4-73.8,242.9-212.2,291.7-288.5C1540.3,788.1,1523.3,759.6,1497.4,761.5z"/>
<path class="st0" d="M1121.6,807.1c-12.9-28.7-40.1-48.3-71.4-51.3c-34.2-3.3-68.8-7.3-103.6-12.1
	c-550.9-77-491.9,407.5-451.9,587.2c6.6,29.4,41.3,42.3,65.4,24c78.5-59.5,254.3-167.2,540.8-211.2c4.3-0.7,8.6-1.4,12.8-2.2
	c43-8.1,73.4-46.9,70.9-90.6C1179.1,955.4,1149.1,868.4,1121.6,807.1L1121.6,807.1z"/>
<g>
	<path class="st0" d="M1496.1,742.9c-60.6,4.4-185.2,10.6-339.1,2.2c-17-0.9-33.1,6.3-43.6,19.5c-16.7-15.3-38.2-25.1-61.4-27.3
		c-25.6-2.4-51.1-5.3-76-8.4c18.8-37.9,37.9-99.6,8.5-162.1c-14.2-30.2-19.2-61.9-14.8-94.1c5-36.5-24.1-69.6-62.7-66.7
		c-22.7,1.7-42.5,16.5-50.3,37.8c-18.1,48.8-13.5,90.3,18.4,164.1c11.2,26-10,77.3-28.7,109.1c-358.1-5.3-446.3,274.1-369.8,618
		c4.9,22,21.7,40,45.2,45.4c15.9,14.9,257,59.1,496.1-48.4l2.7,232.7c0.1,5.2,2.3,10.1,6.1,13.6c25.2,22.7,59,22.7,84.2,0
		c3.9-3.5,6.1-8.4,6.1-13.6l3.3-288.3c98.3-63.3,184.9-150.1,257.7-258.2c75.4-69.2,131.5-147.4,164-198.2
		C1564.2,785.2,1537.2,739.9,1496.1,742.9L1496.1,742.9z M887.7,718.7c16.6-32.4,38.2-86.7,21.4-125.6
		c-21.3-49.2-35.3-89-17.7-136.4c5.3-14.4,24.8-18.6,35.7-7.1c10.9,11.6,2.6,18.5,4,53.5c1.1,27.2,7.7,54.2,19.7,79.6
		c26,55.1,2.6,111.6-14.1,141C921.9,721.7,904,719.9,887.7,718.7z M512.8,1326.8c-34.5-155-45-361.9,62.7-478.6
		C665.4,750.8,812.6,743.7,944,762c33.8,4.7,69,8.8,104.5,12.2c24.6,2.3,46.1,17.8,56.2,40.4c32.4,72.3,57.7,159,61.4,238.2
		c1.5,34.2-23,64.6-56,70.5c-21.7,4.1-114.8,15.7-233.1,53.2c-162.7,51.6-270.4,119.9-328.1,163.6
		C535.6,1350.1,516.4,1343.1,512.8,1326.8L512.8,1326.8z M1079.8,1555.1c-7.4,4.2-14.9,4.2-22.3,0l-2.8-240.9
		c10.8-5.6,22.9-12.3,28-15.2L1079.8,1555.1z M1265.8,1102.4c-184.5,206.5-434.9,288.4-678,255.3c242.5-173.1,513-188,551.2-204.5
		c20.6-8.8,37.6-23.8,48.9-42.5c16.1,12,37.7,13.6,55.4,4.2C1243.2,1114.7,1250.6,1111.3,1265.8,1102.4L1265.8,1102.4z
		 M1510.6,799.9c-70.1,109.6-169.2,221-284.7,282.1c-6.5,3.4-13.9,1.7-18.5-3.6c-8.8-10.1,2.6-36.6-19.5-133.1
		c-11.2-48.8-27.6-96.8-47.6-141.9c-4.5-10.2,3.2-21.8,14.6-21.2c156,8.6,282.4,2.3,343.9-2.2
		C1509.4,779.2,1516.4,790.9,1510.6,799.9L1510.6,799.9z"/>
	<path class="st0" d="M559,1258.8c9.9-2.5,15.9-12.7,13.4-22.6c-21.8-84.9-13.5-153.5-13.4-154.5c1.3-10.2-5.9-19.5-16.1-20.8
		c-10.2-1.3-19.5,5.9-20.8,16.1c-0.4,3.1-9.4,76.1,14.3,168.5C539,1255.4,549.1,1261.4,559,1258.8L559,1258.8z"/>
	<circle class="st0" cx="546.6" cy="1015.3" r="18.6"/>
</g>
</svg>
