<?xml version="1.0" encoding="utf-8"?>
<!-- Generator: Adobe Illustrator 21.0.0, SVG Export Plug-In . SVG Version: 6.00 Build 0)  -->
<svg version="1.1" id="Layer_1" xmlns="http://www.w3.org/2000/svg" xmlns:xlink="http://www.w3.org/1999/xlink" x="0px" y="0px"
	 width="2000px" height="2000px" viewBox="0 0 2000 2000" style="enable-background:new 0 0 2000 2000;" xml:space="preserve">
<style type="text/css">
	.st0{fill:#38B9DB;}
	.st1{display:none;}
</style>
<path class="st0" d="M1122.6,478.7c-0.8-0.2-1.5-0.4-2.3-0.6C974.5,429.8,783,439,650.1,518.2c-30.8,18.4-57.1,43.7-79.5,71.7
	c-75.3,93.9-133.8,220.2-110.7,343c15,79.5,93,262.5,120,304.5s48,43.5,25.5,157.5c-13.4,67.8-22.5,111.4-27.7,135.6
	c-3,13.8,5.7,27.5,19.4,30.7c57.1,13.4,209.6,38.9,420.6-4.2c13.5-2.8,22.5-15.5,20.5-29.1c-5.7-40.1-15.3-118.9-5.3-142
	c13.5-31.5,39-36,102-28.5s150,19.5,160.5-54c11.6-58,45.4-88.3,6.1-123.3c-15.5-13.8-9.3-39.4,10.8-44.5c0.4-0.1,0.8-0.2,1.2-0.3
	c11.8-2.9,20.1-13.5,19.9-25.7c-0.2-11.7-1.8-24.2-3.4-28.2c-1.5-3.7,22.2-6.1,25.2-6.7c11.8-2.4,23.7-6.8,32.1-15.7
	c8.9-9.4,12.7-22.8,12.2-35.7c-0.9-25.3-16.6-48.8-30.3-69.3c-16.6-24.8-35.1-48.3-53.8-71.5c-6-7.4-12-14.8-18-22.1
	c-2.3-2.8-4.1-6.2-5-9.7c-9.2-34.4,5.9-142.2-12-187.8C1261,613.6,1217.6,500.4,1122.6,478.7z"/>
<g>
	<path class="st0" d="M1474.2,1228.8l-40.8-22.4c30.2-55,4-123.6,3.8-124.3l43.3-17.1C1481.9,1068.6,1515.1,1154.3,1474.2,1228.8z"
		/>
</g>
<g>
	<path class="st0" d="M1542,1308.7l-40.9-22.3c69.8-127.7,9.8-282.6,9.2-284.1l43.3-17.2c0.7,1.8,17.6,44.8,24.7,105.7
		c4.2,35.9,4.2,70.8-0.1,103.6C1572.9,1236.1,1560.7,1274.5,1542,1308.7z"/>
</g>
<g>
	<path class="st0" d="M1609.3,1391.5l-40.9-22.4c57.7-105.4,58.7-222,49.4-301.3c-10.1-86.5-34.2-147.8-34.4-148.5l43.3-17.2
		c1.1,2.7,26.5,67.7,37.4,160.2c6.4,54.5,6.4,107.3-0.1,157C1655.9,1282.2,1637.5,1340.1,1609.3,1391.5z"/>
</g>
<g id="Layer_2" class="st1">
</g>
</svg>
