<?xml version="1.0" encoding="utf-8"?>
<!-- Generator: Adobe Illustrator 21.0.0, SVG Export Plug-In . SVG Version: 6.00 Build 0)  -->
<svg version="1.1" id="Layer_1" xmlns="http://www.w3.org/2000/svg" xmlns:xlink="http://www.w3.org/1999/xlink" x="0px" y="0px"
	 width="2000px" height="2000px" viewBox="0 0 2000 2000" style="enable-background:new 0 0 2000 2000;" xml:space="preserve">
<style type="text/css">
	.st0{fill:#36B9DB;}
</style>
<path class="st0" d="M866.2,328c-66.4,0-120.5,54.3-120.5,121s54,121,120.5,121s120.5-54.3,120.5-121S932.6,328,866.2,328z
	 M1222.5,1296.4c3.2-8.8,4.8-18,4.8-27.3V1054c0-44.5-35.8-80.7-80.1-80.7H899.4l3.4-43.5c4.3-55.2,3.2-78.6,3.2-198.5
	c0-66.2-77.7-106.8-131.5-61.1c-5.5,4.8-36.8,35.3-154.2,153.6c-20.7,20.9-35.3,36.4-35.3,68.9c-0.1,21.4,8.4,41.9,23.6,57
	l112.3,112.7c-26.2,105.3-59.9,256.1-122.3,350.1c-24.8,36.9-15,86.8,21.8,111.6s86.8,15,111.6-21.8c0.1-0.1,0.1-0.2,0.2-0.3
	c71.1-107.1,107.1-264,136.7-367.4h198.4l-0.4,134.4c0.1,9.2,1.8,18.3,4.9,26.9h-18.3c-110.7,0-200.8,90.5-200.8,201.7
	c0,22.2,17.9,40.3,40.2,40.3h481.9c22.2,0,40.2-18.1,40.2-40.3C1415,1389.3,1329.4,1300.9,1222.5,1296.4z M940,1457.3
	c16.6-46.9,61.2-80.7,113.6-80.7h160.6c52.4,0,97,33.7,113.6,80.7H940z"/>
</svg>
