<?xml version="1.0" encoding="utf-8"?>
<!-- Generator: Adobe Illustrator 21.0.0, SVG Export Plug-In . SVG Version: 6.00 Build 0)  -->
<svg version="1.1" id="Layer_1" xmlns="http://www.w3.org/2000/svg" xmlns:xlink="http://www.w3.org/1999/xlink" x="0px" y="0px"
	 width="2000px" height="2000px" viewBox="0 0 2000 2000" style="enable-background:new 0 0 2000 2000;" xml:space="preserve">
<style type="text/css">
	.st0{fill:#38B9DB;}
	.st1{fill:#FFFFFF;}
	.st2{fill:none;}
	.st3{display:none;}
</style>
<g id="Layer_1_copy_3">
	<g id="Layer_2_2_">
	</g>
	<path class="st0" d="M1254.9,477.4c0,0,117.8,127.1,54.3,333.3c-12.4,32.6-23.3,122.8,105.4,251.3c10.9,9.1,17.1,47.9-79.8,78.9
		c-2.3,12.4,16.3,117.8-28.7,150.4s-18.6,77.5-18.6,77.5s36.5,131.4-130.2,99.2c-58.9-18.6-186-69.8-279-51.2
		c-17.3,3.5-29.8-26.7-36.3-37.9c-10.7-18.3-20.4-37.2-28.9-56.6c-15.3-35-25.7-71.3-31.4-109.1c-11.1-74.3,2.7-150.6,23.5-222.1
		c19.9-68.6,45.8-136.3,87.4-195c7.1-10,14.5-19.6,22.5-28.9c32.1-37.7,69.4-70.7,107.8-101.7c54.6-44.2,108.4-89.3,163.2-133.3
		C1189.8,529.3,1254.1,476.6,1254.9,477.4z"/>
	<path class="st0" d="M1254.8,1261.9c-15.5,0.5-32.8-0.5-50.3-2.8c-17.9-2.4-27.4-13.2-25.1-28.3c2.3-14.6,14.2-21.8,31.3-19.3
		c34.1,4.7,68,3.2,102.1-0.5c10.4-1.1,11-7.6,7.6-15.3c-4.4-10.2-10-19.9-14.4-30.4c-9-21.8-4.4-35.4,15.6-47.9
		c16-9.9,34.3-15.3,51.6-22.3c30.2-12.3,30.7-14.4,11-39.5c-23.2-29.2-47.7-57.2-68.4-88.4c-20.2-30.2-36-61.9-39.5-98.8
		c-2.4-24.2,2.1-47.1,10-69.9c34.1-98,22-190.4-32.6-278c-5.4-8.8-8.4-9.1-16.2-2.3c-68.7,61.1-142.7,116.1-212.2,176.4
		C954.9,755.7,892.4,823.4,854.7,910c-63.6,145.9-66.6,292.5-2.4,439.3c6.1,14,12.3,27.8,18.6,41.8c1.3,3,1.7,7.2,7.2,4.9
		c49.6-22.7,99.1-12.1,148.7-0.2c46.9,11.4,91.9,30,138.8,42.1c22.9,6,46,12.3,70.3,7.6c30.2-5.8,44.9-28.8,36.4-58.5
		c-4.2-14.9-11-29.2-16-44.1c-12.3-36.5,5.4-67.8,42.9-77.1c15.1-3.7,28.3,3.2,31.8,16.7c3.3,13-3.9,25.7-18.8,29
		c-12.7,2.8-13.7,9.3-9.5,19.3c7.4,17.4,14.9,34.5,18.4,53.1c10,54.6-26.9,103.6-82.2,109.8c-36.5,4.1-71.2-5.1-105.8-15.1
		c-47.7-14-93.9-32.8-142.5-43c-30.2-6.3-60.4-8.8-90.5-0.4c-8.4,2.3-11,5.1-8.4,14.7c9.9,35.4,13,71.3,0.9,107.3
		c-18.1,53.4-64.8,69.5-114,61.3c-13.6-2.3-20.5-13.4-18.8-26.7c1.4-12.3,11.2-20.2,24.4-20.4c2.6,0,5.4,0.4,8.1,0.5
		c39.2,2.4,57.4-14,59.8-53.3c2.1-32.2-6.7-62-18.1-91.5c-15.6-40.4-37.8-78.4-49.4-120.4c-61.9-224.7-12.8-421.9,148.3-590.4
		c59.8-62.4,129-114,196.1-168.3c33.2-26.9,66.9-52.9,96.3-84c17.9-18.6,32-39.7,39-65c3.9-14.6,16.7-21.6,29.8-17.9
		c12.5,3.5,19.2,15.5,16.2,29.8c-4.2,19.5-12.7,37.3-24.4,53.4c-5.1,6.9-4.9,11.4,0,18.4c47.7,68,70.4,143.4,66.9,226.3
		c-1.4,35-7.4,69.7-20.4,102.5c-13.6,34.6-10.4,67.5,6.1,99.8c15.6,30.6,37.6,56.6,58.7,83.5c13.4,16.9,27,33.6,39.9,50.8
		c19.5,26.3,12.5,59.4-16,75.7c-15.6,8.8-31.8,16.4-48.1,24.1c-19,9-19.2,8.8-10,27c6.9,14,11.2,28.1,7.6,43.9
		c-5.1,23.3-17.7,36-41.1,39.9C1305.3,1260.6,1281.2,1262.3,1254.8,1261.9"/>
	<path class="st0" d="M590.3,1054.2c-1.9-111.4,38.8-204.7,116.1-284.7c62-64.3,132.7-116.5,209.6-160.8
		c85-48.8,167.5-101,239-168.7c11.2-10.6,25.3-9.5,34.6,0.7c9.3,10.4,8.4,23.9-3,34.6c-51.1,48.1-107.2,89.8-166.8,126.9
		c-57.4,35.6-117.4,67.5-172.4,107c-53.8,38.8-101.4,84.4-142.9,136c-42.3,52.5-62.6,113.7-65.4,180.1
		c-5.6,133.6,33.6,255.5,102.3,368.7c5.6,9.1,12.8,17.4,19.3,25.7c9,11.6,8.2,25-1.7,33.9c-10.2,9.1-24.8,8.6-34.6-3
		c-23.9-27.2-41.1-58.5-57-90.7C620.3,1263.6,592,1162,590.3,1054.2"/>
	<path class="st0" d="M578.7,761.6c-12.5-0.2-19.9-4.2-24.2-13.2c-4.4-9.5-3-18.1,3.3-26.3c42.9-55.5,97.5-94.5,163.4-117.7
		c38.5-13.6,78.6-21.4,117.7-32.5c33.4-9.3,63.9-23.2,85.4-52.4c8.1-11,21.8-11.9,32.5-4.2c10.9,7.9,13.2,21.4,5.2,33.4
		c-14.7,21.6-35,37.1-57.8,49.2c-32.8,17.5-68.9,24.6-104.5,33.4c-49.9,12.3-97.7,29-140.5,58.5c-24.4,16.7-43.4,38.8-62.6,60.8
		C591,756.8,585,761.8,578.7,761.6"/>
	<path class="st1" d="M1043.3,980.4c14.7,9.7,29.7,19.3,44.5,29.5c14.6,9.9,18.3,22.9,10.2,35.4c-7.9,11.9-22.2,14-36.5,4.7
		c-14.7-9.5-29-19.2-43.6-28.7c-1.1,0.5-2.4,0.9-2.6,1.3c-2.6,12.7-9.1,21.8-22.7,22.9c-13.6,1.3-20.7-7.9-26.7-18.8
		c-11.9-22-24.2-43.8-36.7-65.6c-5.8-10-8.6-20.2-1.7-30.2c6.9-10,16.7-11.6,28.5-9.7c27,4.2,54.3,7.4,81.2,11.2
		c9.9,1.3,16.2,7.1,19,16.5c3,10,0,18.4-7.6,25.3C1047,976.3,1043.8,976.8,1043.3,980.4"/>
	<path class="st1" d="M947.2,1165.8c-1.3,3.3-2.1,5.8-3,8.1c-3.9,9.7-11,15.1-21.4,15.5c-10.6,0.4-18.1-4.7-22.5-14
		c-12.7-26.3-25.3-52.4-37.3-78.9c-8.8-19.5,4.7-37.6,25.9-34.1c29,4.9,58.1,11.2,87,17.5c10,2.3,16.2,9.7,17.4,19.9
		c1.3,12.5-4.7,21.1-17.7,26.7c15.6,11.9,29.8,22.7,43.9,33.7c14,10.9,16.9,24.2,8.1,36c-8.8,11.6-22.9,12.7-36.7,2.4
		C976,1187.7,961.9,1177,947.2,1165.8"/>
	<rect x="552" y="380.5" class="st2" width="896" height="1240.2"/>
	<g id="Layer_2_3_" class="st3">
	</g>
</g>
</svg>
