<?xml version="1.0" encoding="utf-8"?>
<!-- Generator: Adobe Illustrator 21.0.0, SVG Export Plug-In . SVG Version: 6.00 Build 0)  -->
<svg version="1.1" xmlns="http://www.w3.org/2000/svg" xmlns:xlink="http://www.w3.org/1999/xlink" x="0px" y="0px" width="2000px"
	 height="2000px" viewBox="0 0 2000 2000" style="enable-background:new 0 0 2000 2000;" xml:space="preserve">
<style type="text/css">
	.st0{display:none;}
	.st1{display:inline;}
	.st2{fill:#38B9DB;}
	.st3{fill:none;stroke:#FFFFFF;stroke-width:79.28;stroke-miterlimit:10;}
	.st4{fill:#FFFFFF;}
	.st5{fill:none;}
	.st6{fill:none;stroke:#38B9DB;stroke-width:114.7953;}
</style>
<g id="Layer_1" class="st0">
	<g class="st1">
		<ellipse class="st2" cx="1002.9" cy="1000.5" rx="575.9" ry="581"/>
		<ellipse class="st3" cx="998.1" cy="1000.5" rx="575.9" ry="581"/>
		<g id="Layer_1_1_">
			<g>
				<g>
					<g>
						<path class="st4" d="M1455,1064.5c-12.5-2.4-24.3,6.1-26.7,18.6c-36.9,206.1-215.7,355.6-425.4,355.6
							c-238.4,0-432.2-193.9-432.2-432.2s193.9-432.2,432.2-432.2c99.3,0,192.4,34.3,266.4,92.5c-42.7,19.1-72.4,62-72.4,111.7
							c0,42.1-34.3,76.4-76.4,76.4c-54.9,0-101.3,36.4-116.9,86.1c-8.5-6.5-18-11.7-28.4-14.6c2.4-11.5,5.2-18.4,8.5-26.2
							c4.1-10,8.5-21.4,11.9-40.4c6.3-37.1-4.4-74.2-30.1-105.2c-30.9-37.3-80.7-60.7-130-61.6c-89.4-1.5-163.8,70.1-165.5,159.6
							c-0.6,26.5,5.2,52.7,17.1,76.2c6.1,12.3,7.2,26.2,2.8,38.6c-12.3,34.5-18.4,70.9-17.8,107.8c1.1,79.2,33.9,154.5,92,212.3
							c58.2,57.5,133.8,89.6,213.1,90.2c0.6,0,1.3,0,1.9,0c15.9,0,31.7-1.3,47.2-3.6c44-6.7,84.2-29.2,113.2-63.3
							c16.1-19.1,28.4-40.8,35.8-64.4c9.5,5,20.6,7.8,31.9,7.8c0.2,0,0.4,0,0.6,0c37.7-0.4,68.1-31.7,68.1-70.1v-59.2
							c0-39.3-19.9-75.5-53.1-97c-24.7-15.9-54.2-21.4-82.4-16.3c-1.7-15.9-8.9-30.4-20.4-41.7c-13.1-13-30.4-19.9-49.1-19.7
							c-8.2,0-16.3,1.7-23.9,4.4c9.7-31.1,38.8-53.8,73.1-53.8c67.5,0,122.3-54.9,122.3-122.3c0-39,29.2-71.1,66.9-75.7
							c57.1,57.5,98.7,131.5,116,214.8c2.6,12.5,14.8,20.4,27.3,17.8c12.5-2.6,20.4-14.8,17.8-27.3
							c-19.3-92.5-66.2-177.6-133.8-243.6c-1.1-1.3-2.4-2.4-3.6-3.4c-8.7-8.2-17.8-16.5-27.1-24.1
							c-85.1-70.1-192.8-108.6-303.3-108.6c-263.6,0-478.1,214.4-478.1,478.1s214.4,478.1,478.1,478.1c112.8,0,222.4-40,308.7-112.8
							c85.1-72,142.7-171.6,162.1-280.7C1475.8,1078.7,1467.6,1066.8,1455,1064.5z M959.3,969.9c16.5,3.6,29.5,17.4,31.3,34.5
							l-14.8,15l-63.1-21c3.4-1.7,6.7-3.2,10-4.4C935.4,988.3,948.9,982.2,959.3,969.9z M1056.1,1003.1c4.3-4.4,10-6.7,16.1-7
							c6.1,0,11.9,2.4,16.3,6.5c4.4,4.3,6.7,10,7,16.1c0,6.1-2.4,11.9-6.5,16.3l-1.9,1.9c-5.5,4.6-10.4,9.7-14.8,15.2l-34.5,35.4
							c-15.4,15.9-37.3,25-59.7,25c-8.9,0-17.6-1.5-26-4.3l-94.4-31.5c-12.1-4.1-25,2.6-29,14.6c-4.1,12.1,2.6,25,14.6,29l94.4,31.5
							c13.1,4.4,26.7,6.5,40.4,6.5c24.3,0,48-7,68.4-19.5v54.4c0,12.7,10.4,23,23,23s23-10.4,23-23v-68.7c0-15.4,5-30.1,14.1-41.9
							l11.9-12.1c4.3-3.4,8.9-6.3,13.9-8.7c21.4-10,46.2-8.2,66,4.4c19.9,12.7,31.7,34.5,31.7,58.2v59.2c0,13.1-10.2,23.9-22.6,24.1
							h-0.2c-11.9,0-21.7-9.1-22.8-20.8v-45.3c0-12.7-10.4-23-23-23c-12.6,0-23,10.4-23,23v46.4c0,70.3-50.1,129.1-119.3,139.7
							c-13.7,2.1-27.7,3.2-41.7,3c-138.6-0.9-257.3-118.5-259.3-256.9c-0.4-31.5,4.6-62.2,15-91.6c8.5-23.9,6.7-51-5-74.5
							c-8.5-16.9-12.7-35.4-12.3-54.6c1.3-63.5,53.6-114.5,117.1-114.5c0.6,0,1.3,0,1.9,0c36.2,0.6,72.6,17.8,95.2,45.1
							c12.1,14.4,25.2,37.9,20.1,68.1c-2.4,14.1-5.5,22-9.1,30.9c-4.4,10.8-9.3,23.2-13,45.5c-2.1,13-5.2,14.6-24.3,23
							c-5.2,2.4-11.2,4.8-17.6,8.2l-0.4,0.2c-15.6,8-25,24.3-23.7,41.9c1.3,17.4,13,32.1,29.5,37.7l74.9,25
							c13.3,4.4,28.4,0.9,38.1-9.3L1056.1,1003.1z"/>
					</g>
				</g>
				<g>
					<g>
						<path class="st4" d="M1458,983.7c-12.7,0-23,10.4-23,23v2.6c0,12.7,10.2,23,22.8,23c0,0,0,0,0.2,0c12.7,0,22.8-10.2,23-22.8
							v-2.8C1481.1,994,1470.7,983.7,1458,983.7z"/>
					</g>
				</g>
			</g>
		</g>
		<g id="Layer_2_1_" class="st0">
		</g>
	</g>
	<g class="st1">
		<path id="path" class="st5" d="M-167.5,659.9L-119,344l-307.4,16.9"/>
	</g>
</g>
<g id="Layer_1_copy" class="st0">
	<g class="st1">
		<path class="st2" d="M843.6,784.3c209,0.2,378.3,169.7,378.2,378.7c0,209.1-169.3,378.7-378.2,378.7S465.4,1372.2,465.4,1163
			S634.8,784.3,843.6,784.3z"/>
		<g>
			<path id="path_2_" class="st5" d="M1532.2,871.5l55.7-362.7L1235,528.3"/>
		</g>
		<g>
			<path id="path_1_" class="st6" d="M1524.1,889.1l50.5-362.7l-352.9,19.4"/>
		</g>
		<path class="st6" d="M1562.4,538.3l-439.9,386.4"/>
	</g>
</g>
<g id="Layer_1_copy_2">
	<g>
		<path class="st2" d="M824.3,915.7c0,0,52,51.9,118.7,48.3c29.3-1.6,62.7-17.6,73.3-26.9c0,0,32.7,36.3,94,26.8
			c40.7-9.5,86.7-58.2,86.7-58.2s46,50,36.7,109.3c-9.3,59.3-40,77.3-40,77.3s-72-86.7-172-38.7c0,0-83.3-32.7-139.3-5.3
			c-38.2,21.3-58,44-58,44s-48.7-53.3-37.3-102.7S806.3,933.7,824.3,915.7z"/>
		<path class="st2" d="M1067,1149.4c0,0-25-133-169-102c-38,14-144,80-62,210c-6,14-32.6,86,54.7,101c5.3,24,0,195,0,195H1126
			l-5-138c0,0,7-119,70-165c12-13,47-70.2,13-137.6c-21-36.4-70-102.4-176-56.4C1015.2,1066.4,1058,1103.4,1067,1149.4z"/>
		<path class="st2" d="M1019.7,926.2c0,0,37.9,50.8,123.4,18.1c13.5-9,82.5-46.4,69-145.4c-10.5-34.5-58.5-94.5-58.5-94.5
			s30-39,25.5-63c-4.5-24-13.5-43.5-52.5-61.5c-3-21,1.5-139.5,1.5-139.5h-228v171c0,0-25.5,114.3-82.5,146.4
			c-10.5,18.6-40.9,177.4,119.2,197.6C944.2,956.9,985.6,953.5,1019.7,926.2c17.3-13.9,32.8-34.1,40.9-62.9"/>
		<path class="st4" d="M1218.1,905.9c7-13.2,12.2-27.4,14.9-42.5c8.4-45.9-4.3-92.1-34.7-126.5c-9.1-10.3-17.3-21.4-24.4-32.9
			c15.4-13.9,24.4-33.7,24.4-54.9c0-34.7-23.8-63.9-55.9-72.2V444c0-10.3-8.3-18.6-18.6-18.6H900c-10.3,0-18.6,8.4-18.6,18.6v152.2
			c0,49.5-19.6,99.1-55.1,139.7c-0.3,0.3-0.6,0.6-0.8,0.9c-24,27.2-37.2,62.3-37.2,98.6c0,25.4,6.4,49.3,17.7,70.3
			c-23.5,27-36.3,61.1-36.3,97.5c0,36.2,12.9,70.3,36.3,97.4c-11.3,21-17.7,44.9-17.7,70.4c0,32.9,10.7,64.3,30.5,90.2
			c-7.7,11.9-11.9,25.7-11.9,40.3c0,40,31.7,72.8,71.3,74.5c2.2,11.7,3.3,23.1,3.3,34.2v152.2c0,10.3,8.3,18.6,18.6,18.6h223.7
			c10.3,0,18.6-8.4,18.6-18.6v-152.2c0-49.8,19.9-99.8,55.9-140.6c30.5-34.5,43.1-80.6,34.7-126.5c-2.7-15.1-7.9-29.3-14.9-42.5
			c23.4-27,36.1-61.1,36.1-97.3C1254.2,966.9,1241.5,932.9,1218.1,905.9z M852.7,762.4c0.3-0.3,0.5-0.5,0.8-0.8
			c42.1-47.6,65.2-106.4,65.2-165.3V462.7h186.4v130.5c0,10.3,8.3,18.6,18.6,18.6c20.6,0,37.3,16.7,37.3,37.3
			c0,13.8-7.8,26.4-20.2,32.9c-9.1,4.8-12.7,16-7.9,25.1c10.1,19.4,22.7,37.8,37.5,54.5c22.9,25.9,32.3,60.5,26,95.2
			c-8.1,44.1-43,79.6-86.9,88.3c-22.3,4.5-44.7,2.3-65-5.9c26-26.8,42-63.4,42-103.6h-37.3c0,61.7-50.2,111.8-111.8,111.8
			s-111.8-50.2-111.8-111.8C825.5,808.6,835.1,782.7,852.7,762.4z M806.8,1003.2c0-24.2,7.6-47.1,21.7-66.1
			c27.2,29.1,65.9,47.5,108.8,47.5c27.2,0,52.6-7.3,74.6-20c31.5,18.2,68.1,24.3,104.8,17c30.7-6.1,57.9-22.1,78.6-44.3
			c14,19,21.6,41.8,21.6,65.9c0,24.2-7.6,46.9-21.6,65.9c-20.7-22.2-47.9-38.2-78.6-44.3c-36.6-7.3-73.3-1.2-104.8,17
			c-22-12.7-47.4-20-74.6-20c-42.9,0-81.5,18.3-108.7,47.4C814.5,1050.2,806.8,1027.3,806.8,1003.2z M1170.3,1244.9
			c-42.1,47.6-65.2,106.4-65.2,165.3v133.6H918.7v-133.6c0-19-2.6-38.8-7.8-58.7c-1.3-5-4.7-9.2-9.2-11.6c-3.9-2.1-8.5-2.7-12.8-1.8
			c-2.4,0.5-4.9,0.7-7.4,0.7c-20.6,0-37.3-16.7-37.3-37.3c0-10.2,4.2-19.8,11.7-27c3.6-3.4,5.7-8.1,5.8-13c0.1-5-1.7-9.7-5.1-13.3
			c-20-21-31-48.3-31-77.1c0-61.7,50.2-111.8,111.8-111.8s111.8,50.2,111.8,111.8h37.3c0-40.2-16-76.8-42-103.6
			c20.3-8.2,42.6-10.4,65-5.9c43.9,8.7,78.8,44.2,86.9,88.3C1202.6,1184.3,1193.2,1219,1170.3,1244.9z"/>
		<path class="st4" d="M937.3,928.7v-37.3c-30.8,0-55.9-25.1-55.9-55.9h-37.3C844.1,886.9,885.9,928.7,937.3,928.7z"/>
		<path class="st4" d="M844.1,1171h37.3c0-30.8,25.1-55.9,55.9-55.9v-37.3C885.9,1077.8,844.1,1119.6,844.1,1171z"/>
		<path class="st2" d="M681.8,792.7l26.4-26.4l55.9,55.9l-26.4,26.4L681.8,792.7z"/>
		<path class="st2" d="M681.7,1213.6l55.9-55.9l26.4,26.4l-55.9,55.9L681.7,1213.6z"/>
		<path class="st2" d="M649.1,926.7l16.7-33.3l74.5,37.3L723.6,964L649.1,926.7z"/>
		<path class="st2" d="M649.2,1079.5l74.5-37.3l16.7,33.3l-74.5,37.3L649.2,1079.5z"/>
		<path class="st2" d="M1259.5,822.3l55.9-55.9l26.4,26.4l-55.9,55.9L1259.5,822.3z"/>
		<path class="st2" d="M1259.5,1184.2l26.4-26.4l55.9,55.9l-26.4,26.4L1259.5,1184.2z"/>
		<path class="st2" d="M1282.7,930.6l74.5-37.3l16.7,33.3l-74.5,37.3L1282.7,930.6z"/>
		<path class="st2" d="M1282.7,1076.1l16.7-33.3l74.5,37.3l-16.7,33.3L1282.7,1076.1z"/>
	</g>
</g>
</svg>
