<?xml version="1.0" encoding="utf-8"?>
<!-- Generator: Adobe Illustrator 21.0.0, SVG Export Plug-In . SVG Version: 6.00 Build 0)  -->
<svg version="1.1" id="Layer_1" xmlns="http://www.w3.org/2000/svg" xmlns:xlink="http://www.w3.org/1999/xlink" x="0px" y="0px"
	 width="2000px" height="2000px" viewBox="0 0 2000 2000" style="enable-background:new 0 0 2000 2000;" xml:space="preserve">
<style type="text/css">
	.st0{fill:#38B9DB;}
</style>
<g>
	<path class="st0" d="M836.1,602.3V668c0,36.2-29.5,65.7-65.7,65.7H573V602.3h65.7c36.2,0,65.7-29.5,65.7-65.7h65.7
		C806.6,536.4,836.1,565.9,836.1,602.3z"/>
	<path class="st0" d="M836.1,931.1v65.7c0,36.2-29.5,65.7-65.7,65.7H573V931.1h65.7c36.2,0,65.7-29.5,65.7-65.7h65.7
		C806.6,865.4,836.1,894.7,836.1,931.1z"/>
	<path class="st0" d="M836.1,1259.9v65.7c0,36.2-29.5,65.7-65.7,65.7H573v-131.4h65.7c36.2,0,65.7-29.5,65.7-65.7h65.7
		C806.6,1194.2,836.1,1223.7,836.1,1259.9z"/>
	<path class="st0" d="M1428,602.3v131.4h-197.4c-36.2,0-65.7-29.5-65.7-65.7v-65.7c0-36.2,29.5-65.7,65.7-65.7h65.7
		c0,36.2,29.5,65.7,65.7,65.7L1428,602.3L1428,602.3z"/>
	<path class="st0" d="M1428,931.1v131.4h-197.4c-36.2,0-65.7-29.5-65.7-65.7v-65.7c0-36.2,29.5-65.7,65.7-65.7h65.7
		c0,36.2,29.5,65.7,65.7,65.7H1428z"/>
	<path class="st0" d="M1428,1259.9v131.4h-197.4c-36.2,0-65.7-29.5-65.7-65.7v-65.7c0-36.2,29.5-65.7,65.7-65.7h65.7
		c0,36.2,29.5,65.7,65.7,65.7L1428,1259.9L1428,1259.9z"/>
	<path class="st0" d="M1066.2,1062.5v197.4h33v65.7c0,23.9,6.4,46.4,17.7,65.7h-50.5v166.5H935v-166.5h-50.5
		c11.2-19.3,17.7-41.8,17.7-65.7v-65.7h33v-197.4h-50.5c11.2-19.3,17.7-41.8,17.7-65.7v-65.7h33V733.7h-50.5
		c11.2-19.3,17.7-41.8,17.7-65.7v-65.7h33V435.8H1067v166.5h33V668c0,23.9,6.4,46.4,17.7,65.7h-50.5v197.4h33v65.7
		c0,23.9,6.4,46.4,17.7,65.7H1066.2z"/>
</g>
</svg>
