<?xml version="1.0" encoding="utf-8"?>
<!-- Generator: Adobe Illustrator 21.0.0, SVG Export Plug-In . SVG Version: 6.00 Build 0)  -->
<svg version="1.1" id="Layer_1" xmlns="http://www.w3.org/2000/svg" xmlns:xlink="http://www.w3.org/1999/xlink" x="0px" y="0px"
	 width="2000px" height="2000px" viewBox="0 0 2000 2000" style="enable-background:new 0 0 2000 2000;" xml:space="preserve">
<style type="text/css">
	.st0{fill:#38B9DB;}
	.st1{fill:#FFFFFF;}
</style>
<g id="Layer_1_copy_9">
	<title>038 - Mind Map</title>
	<desc>Created with Sketch.</desc>
	<g>
		<path class="st0" d="M1525.9,783.8l-6.5-10.9c-33.1-55.2-90.1-90.7-153.3-97.2c-6.8-0.8-13.7-1.4-20.8-1.4
			c-95.2,0-172.4,77.2-172.4,172.4c0,44.9,17.3,85.6,45.4,116.3c-28.1,30.4-45.4,70.7-45.4,115.2c0,94.4,77.2,170.9,172.4,170.9
			c7,0,13.9-0.5,20.8-1.4c63.2-6.5,120.2-42.1,153.3-97.2l6.5-10.9c32.2-53.7,49.3-115.2,49.3-177.9S1558.2,837.5,1525.9,783.8z"/>
		<path class="st0" d="M828.1,846.7c0-95.2-77.2-172.4-172.4-172.4c-7,0-13.9,0.5-20.8,1.4c-63.2,6.5-120.2,42.1-153.3,97.2
			l-6.5,10.9c-32.2,53.8-49.3,115.3-49.3,177.9s17,124.2,49.3,177.9l6.5,10.9c33.1,55.2,90.1,90.7,153.3,97.2
			c6.8,0.8,13.7,1.4,20.8,1.4c95.2,0,172.4-76.5,172.4-170.9c0-44.4-17.3-84.8-45.4-115.2C810.8,932.4,828.1,891.6,828.1,846.7z"/>
	</g>
	<path class="st0" d="M1542.4,773.9l-6.5-10.9c-35.7-59.5-98.4-99.3-167.5-106.4c-8.4-1-16-1.5-23-1.5
		c-105.6,0-191.6,85.9-191.6,191.6c0,43.7,14.7,84,39.4,116.2c-13.7,17.7-23.9,37.5-30.5,58.5l-62.1,62.1
		c-8.7,8.7-16.4,18.2-23.4,28.1v-73.4h-38.3v172.4h1.2c-0.7,7.2-1.2,14.5-1.2,21.9v361.3h38.3v-361.3c0-46.1,17.9-89.4,50.5-121.9
		l26.4-26.4c0.6,18,3.6,35.5,8.9,51.9l-8.2,8.2c-25.3,25.3-39.3,59-39.3,94.8v354.7h38.3v-354.7c0-24.6,9.4-47.7,26.2-65.5
		c33.3,56.4,94.8,94.5,165.3,94.5c7,0,14.6-0.5,22.7-1.4c69.3-7.1,132.1-46.9,167.8-106.4l6.5-10.9c34-56.7,52-121.6,52-187.8
		S1576.4,830.6,1542.4,773.9z M1509.5,1129.7l-6.5,10.9c-29.5,49.2-81.4,82.1-139.1,88c-6.1,0.7-12.2,1.2-18.5,1.2
		c-84.5,0-153.3-68.1-153.3-151.7c0-31.3,9.8-61.4,27.7-86.8c33.7,29.2,77.5,47,125.5,47V1000c-84.5,0-153.3-68.8-153.3-153.3
		c0-90.8,79.9-162.8,172.1-152c57.4,5.9,109.3,38.8,138.9,88l6.5,10.9c30.5,50.8,46.6,108.9,46.6,168.1S1540,1079,1509.5,1129.7z"/>
	<path class="st1" d="M1476.7,813.4l-6.6-10.9c-23.3-38.9-64.4-64.9-109.7-69.6c-5.8-0.7-10.4-1.1-15.1-1.1v38.3
		c3.3,0,6.6,0.3,10.9,0.8c33.5,3.5,63.8,22.6,81,51.2l6.6,10.9c10.8,18,19.3,37.3,25.3,57.5l36.7-10.9
		C1498.9,856.4,1489.1,834.1,1476.7,813.4z"/>
	<path class="st1" d="M1514.8,920.6l-37.9,5.4c1.7,11.8,2.5,23.7,2.5,35.6h38.3C1517.8,948,1516.8,934.2,1514.8,920.6z"/>
	<path class="st1" d="M732.3,846.7c0,21.3-9,41.9-24.8,56.4l25.9,28.2c23.6-21.7,37.2-52.6,37.2-84.6c0-63.4-51.6-114.9-114.9-114.9
		v38.3C697.9,770.1,732.3,804.5,732.3,846.7z"/>
	<path class="st1" d="M686.3,917c-9.7,4.3-20,6.4-30.6,6.4v38.3c16,0,31.5-3.2,46-9.6L686.3,917z"/>
	<rect x="1038.8" y="406.1" class="st0" width="38.3" height="593.9"/>
	<path class="st0" d="M923.9,1111.7c-7-9.9-14.7-19.3-23.4-28.1l-62.1-62.1c-6.6-21-16.9-40.8-30.5-58.5
		c24.7-32.3,39.4-72.6,39.4-116.3c0-105.6-85.9-191.6-191.6-191.6c-7,0-14.6,0.5-22.7,1.4c-69.3,7.1-132.1,46.9-167.8,106.4
		l-6.5,10.9c-34,56.7-52,121.6-52,187.8c0,66.1,18,131.1,52,187.8l6.5,10.9c35.7,59.5,98.4,99.3,167.5,106.4c8.4,1,16,1.5,23,1.5
		c70.5,0,132.1-38.1,165.3-94.5c16.8,17.8,26.2,40.9,26.2,65.5v354.7h38.3v-354.7c0-35.8-14-69.5-39.3-94.8l-8.2-8.2
		c5.3-16.4,8.3-33.9,8.9-51.9l26.4,26.4c32.5,32.6,50.5,75.9,50.5,121.9v361.3h38.3v-361.3c0-7.4-0.4-14.7-1.2-21.9h1.2V406.1h-38.3
		L923.9,1111.7L923.9,1111.7z M636.9,1228.6c-57.4-5.9-109.3-38.8-138.9-88l-6.5-10.9c-30.5-50.7-46.6-108.9-46.6-168
		c0-59.2,16.1-117.3,46.6-168.1l6.5-10.9c29.5-49.2,81.4-82.1,139.1-88c6.1-0.7,12.2-1.2,18.5-1.2c84.5,0,153.3,68.8,153.3,153.3
		S740.2,1000,655.7,1000v38.3c48,0,91.9-17.7,125.5-46.9c18,25.4,27.8,55.5,27.8,86.8C808.9,1168,729,1239.5,636.9,1228.6z"/>
</g>
</svg>
