<?xml version="1.0" encoding="utf-8"?>
<!-- Generator: Adobe Illustrator 21.0.0, SVG Export Plug-In . SVG Version: 6.00 Build 0)  -->
<svg version="1.1" id="Layer_1" xmlns="http://www.w3.org/2000/svg" xmlns:xlink="http://www.w3.org/1999/xlink" x="0px" y="0px"
	 width="2000px" height="2000px" viewBox="0 0 2000 2000" style="enable-background:new 0 0 2000 2000;" xml:space="preserve">
<style type="text/css">
	.st0{fill:#36B9DB;}
	.st1{fill:#FFFFFF;}
	.st2{fill:none;stroke:#FFFFFF;stroke-miterlimit:10;}
	.st3{fill:none;}
</style>
<g>
	<path class="st0" d="M1374,776.7l-262-262.2l-53.3-53.3c0,0-116.4-98.6-186.3,47.1c0,0-117.5-78.2-176.7,54.5c0,0-66.8-68.7-152-12
		c-45.1,40-75.7,99.6-14.1,161.9c-20.6,8.7-46.7,29.5-62.3,71.2c-4.9,14-26,73,20.2,119.4c46.2,46.4,260.8,261,260.8,261
		s-77-21.1-122.1,44.6c-9.4,16-26.9,49-18.9,84.5c8,35.4,23.4,52.5,35.6,64.8c9.1,7.4,80.5,55.3,80.5,55.3
		c54.4,36.5,106,78.5,165.8,106.5c61.5,28.7,128.6,45.4,196.3,48.2c201.6,8.2,414.6-107.4,459.1-315.3
		c19.1-89.5,13.7-188.1-20.6-273.4C1491.9,900,1433.6,836.3,1374,776.7z"/>
	<g>
		<g>
			<path class="st1" d="M848,1440.9l-191.3-128.7c-12.7-8.6-21.2-21.5-23.9-36.4c-2.7-15,0.4-30.1,9.2-42.4
				c16.8-24.1,49.9-31.1,75.1-15.8l82.3,49.9c18.9,11.4,42.4,7.1,56.1-10.2c13.7-17.2,12.3-41.4-3.3-56.9L496.1,844.3
				c-10.2-10.2-15.8-23.9-15.8-38.5c0-14.5,5.6-28.1,16-38.5c10.2-10.2,23.9-15.8,38.5-15.8c12.7,0,24.5,4.3,34.1,12.1L850,1044.6
				c11.9,11.9,31.1,11.9,43,0c11.9-11.9,11.9-31.1,0-43L540.3,649.2c-21.2-21.2-21.2-55.5,0-76.7c21.2-21.2,55.5-21.2,76.7,0
				l352.6,352.6c11.9,11.9,31.1,11.9,43,0c11.9-11.9,11.9-31.1,0-43L731.7,600.8c-7.9-9.6-12.1-21.7-12.1-34.1
				c0-14.5,5.6-28.1,16-38.5c21.2-21.2,55.5-21.2,76.7,0l205.7,206.1c1,1,71.6,71.2,71.6,71.2c11.9,11.9,31.1,11.9,43,0
				c11.9-11.9,11.9-31.1,0-43L914,543.9c-7.9-9.6-12.1-21.7-12.1-34.1c0-14.5,5.6-28.1,15.8-38.5c10.2-10.2,23.9-15.8,38.5-15.8
				c14.6,0,28.1,5.6,38.5,15.8L1130,606.7c11.9,11.9,31.1,11.9,43,0s11.9-31.1,0-43l-135.4-135.4c-21.9-21.9-50.7-33.7-81.5-33.7
				c-30.8,0-59.7,12.1-81.5,33.7c-13.7,13.7-23.5,30.3-28.9,48.5c-45.2-36.2-111.5-33.3-153.3,8.6c-13.7,13.7-23.3,30.1-28.7,47.6
				l-3.5-3.5c-44.9-44.9-118.1-44.9-163.1,0c-21.9,21.9-33.7,50.7-33.7,81.5c0,30.7,12.1,59.7,33.7,81.5l3.3,3.3
				c-17.8,5.4-34.1,15.2-47.6,28.7c-21.9,21.9-33.7,50.7-33.7,81.5c0,30.7,12.1,59.7,33.7,81.5l265,265c-46.4-12.3-97.2,5-125.8,46
				c-18.3,26-25,57.3-19.1,88.6c5.8,31.1,23.5,58.1,49.9,75.7c0,0,156.6,110,188.3,127.5"/>
		</g>
		<path class="st1" d="M1253.2,1084.2c50.3,0,91.5-40.9,91.5-91.5c0-50.3-40.9-91.5-91.5-91.5c-50.3,0-91.5,40.9-91.5,91.5
			C1161.7,1043,1202.7,1084.2,1253.2,1084.2L1253.2,1084.2z M1253.2,962.4c16.8,0,30.5,13.7,30.5,30.5s-13.7,30.5-30.5,30.5
			s-30.5-13.7-30.5-30.5C1222.6,975.9,1236.4,962.4,1253.2,962.4L1253.2,962.4z"/>
		<path class="st1" d="M1079.5,1417.1c50.3,0,91.5-40.9,91.5-91.5c0-50.3-40.9-91.5-91.5-91.5c-50.3,0-91.5,40.9-91.5,91.5
			C988.3,1376.1,1029.2,1417.1,1079.5,1417.1L1079.5,1417.1z M1079.5,1295.2c16.8,0,30.5,13.7,30.5,30.5c0,16.8-13.7,30.5-30.5,30.5
			c-16.8,0-30.5-13.7-30.5-30.5C1049.2,1308.9,1062.7,1295.2,1079.5,1295.2L1079.5,1295.2z"/>
		<path class="st1" d="M1052.9,1098.9c5.6-5.6,9-13.5,9-21.7c0-8.1-3.3-15.8-9-21.7c-5.6-5.6-13.5-9-21.7-9c-8.2,0-15.8,3.3-21.7,9
			c-5.6,5.6-9,13.5-9,21.7c0,8.1,3.3,15.8,9,21.7c5.6,5.6,13.5,9,21.7,9C1039.4,1107.7,1047.4,1104.6,1052.9,1098.9L1052.9,1098.9z"
			/>
		<path class="st1" d="M1388.1,1256.9c5.6-5.6,9-13.5,9-21.7c0-8.1-3.3-15.8-9-21.7c-5.6-5.6-13.5-9-21.7-9c-8.1,0-15.8,3.3-21.7,9
			c-5.6,5.6-9,13.5-9,21.7c0,8.1,3.3,15.8,9,21.7c5.6,5.6,13.5,9,21.7,9C1374.4,1265.9,1382.3,1262.6,1388.1,1256.9L1388.1,1256.9z"
			/>
		<path class="st1" d="M1241.4,704.9c8.1,0,15.8-3.3,21.7-9c5.6-5.6,9-13.5,9-21.7c0-8.2-3.3-15.8-9-21.7c-5.6-5.6-13.5-9-21.7-9
			c-8.1,0-15.8,3.3-21.7,9c-5.6,5.6-9,13.5-9,21.7c0,8.2,3.3,15.8,9,21.7C1225.6,701.5,1233.4,704.9,1241.4,704.9L1241.4,704.9z"/>
	</g>
	<path class="st2" d="M475.9,901"/>
	<path class="st3" d="M1241.4,674.2l-230.8-230.8c0,0-166.3-45.4-118.3,115.4c50,57.8,219.9,219.9,219.9,219.9"/>
	<g>
		<path class="st1" d="M1118.9,1581c-33.7,0-68.2-3.3-102.6-9.9c-71.3-13.7-141.5-41.2-203.2-79.7c-5.6-3.5-11-7-16.3-10.6
			c-14.2-9.6-17.8-28.9-8.2-43.1c9.6-14.2,28.9-17.8,43.1-8.2c4.6,3.1,9.4,6.3,14.3,9.3c169.9,106.1,408.4,112.8,564.7-23.5
			c101.1-88.2,131.4-244.7,92.9-370.6c-17.2-56.2-58-113.1-87.7-151.5l-398.2-398.7c-12.1-12.1-12.1-31.7,0-43.8
			c12.1-12.1,31.7-12.1,43.8,0L1462.5,852l1.2,1.5c32.8,42.3,78.8,106.3,99.2,172.9c20.2,66.1,23.4,143.6,9.1,218.2
			c-17.2,89.6-60.1,170.6-132.3,227.3C1349.3,1543.2,1233.6,1581,1118.9,1581z"/>
	</g>
</g>
</svg>
