<?xml version="1.0" encoding="utf-8"?>
<!-- Generator: Adobe Illustrator 21.0.0, SVG Export Plug-In . SVG Version: 6.00 Build 0)  -->
<svg version="1.1" id="Layer_1" xmlns="http://www.w3.org/2000/svg" xmlns:xlink="http://www.w3.org/1999/xlink" x="0px" y="0px"
	 width="2000px" height="2000px" viewBox="0 0 2000 2000" style="enable-background:new 0 0 2000 2000;" xml:space="preserve">
<style type="text/css">
	.st0{fill:#38B9DB;}
</style>
<path id="Forma_1" class="st0" d="M1351.7,583.9c-86.4-79.4-184.2-79.3-257.2-61.5c-72.9,17.8-149.1,17.8-222,0
	c-73-17.8-170.9-17.9-257.2,61.5c-163.7,150.4-32,418.9,7.7,465.2c39.6,46.3,40.9,107.9,69.1,233.9s63.9,245.4,135.5,227.5
	s90.8-105.4,108.7-222.3c1.3-8.1,2.5-15.5,3.9-22.6c9.1-48.7,77.8-48.7,86.9,0c1.3,7.1,2.6,14.7,3.9,22.6
	c17.9,116.9,37.1,204.4,108.7,222.3c71.6,18,107.3-101.6,135.5-227.5s29.4-187.7,69.1-233.9
	C1383.7,1002.9,1515.3,734.2,1351.7,583.9z M851.9,642.2c-1.9,14.8-15.4,25.2-30.2,23.2c-5.2-0.7-122-13.6-154.8,114.4
	c-3,11.9-13.8,20.3-26.1,20.3c-2.2,0-4.6-0.3-6.7-0.9c-14.4-3.7-23-18.5-19.3-32.8c35.9-140.4,155.7-162.5,214-154.6
	C843.5,613.8,853.9,627.5,851.9,642.2z"/>
</svg>
