<?xml version="1.0" encoding="utf-8"?>
<!-- Generator: Adobe Illustrator 21.0.0, SVG Export Plug-In . SVG Version: 6.00 Build 0)  -->
<svg version="1.1" id="Layer_1" xmlns="http://www.w3.org/2000/svg" xmlns:xlink="http://www.w3.org/1999/xlink" x="0px" y="0px"
	 width="2000px" height="2000px" viewBox="0 0 2000 2000" style="enable-background:new 0 0 2000 2000;" xml:space="preserve">
<style type="text/css">
	.st0{fill:#38B9DB;}
</style>
<g id="Layer_1_copy_6">
	<title>038 - Mind Map</title>
	<desc>Created with Sketch.</desc>
	<g id="_x30_38---Mind-Map">
		<path id="Shape" class="st0" d="M1145,645.6c-79.8,0-144.5,64.7-144.5,144.5s64.7,144.5,144.5,144.5s144.5-64.7,144.5-144.5
			C1289.4,710.3,1224.7,645.7,1145,645.6z M1145,728.2c-34.2,0-61.9,27.7-61.9,61.9c0,11.4-9.2,20.6-20.6,20.6s-20.6-9.2-20.6-20.6
			c0.1-57,46.2-103.2,103.2-103.2c11.4,0,20.6,9.2,20.6,20.6C1165.6,718.9,1156.4,728.2,1145,728.2z"/>
		<path id="Shape_1_" class="st0" d="M1021.1,542.3c7.8,0,15.6-1.5,22.8-4.5h0.1c26.8-10.6,42.6-38.2,38.3-66.7
			c-4.3-28.4-27.8-50.1-56.4-52.2c-3.3,0-6.7,0-10.1,0c-33.1,2.7-58.1,31-56.7,64.2S987.9,542.4,1021.1,542.3z"/>
		<circle id="Oval" class="st0" cx="1454.7" cy="542.3" r="82.6"/>
		<path id="Shape_2_" class="st0" d="M1330.8,542.3c0-2.4,0.2-4.6,0.4-7c-0.9-0.7-1.7-1.5-2.6-2.1
			c-63.5-52.9-138.9-89.6-219.8-106.7c29.6,47.3,15.8,109.6-31,140l17.9,44.6c64.3-18.1,133.4,0.1,180.5,47.5l70.2-56.2
			C1336.2,584.1,1330.8,563.4,1330.8,542.3z"/>
		<circle id="Oval_1_" class="st0" cx="773.3" cy="955.3" r="82.6"/>
		<path id="Shape_3_" class="st0" d="M1407.3,1009.5c1.9-2.8,3.9-5.7,5.8-8.5c28.6-44.2,44-95.6,44.3-148.2
			c1.2-55.1-5.6-110.2-20.1-163.4c-2.5-8.7-5.6-17.4-9-26.1c-20.8-4.6-40.1-14.5-55.9-28.7l-70.4,56.3c41.5,65.1,38,149.1-8.6,210.6
			L1407.3,1009.5z"/>
		<circle id="Oval_2_" class="st0" cx="1062.4" cy="1161.7" r="41.3"/>
		<path id="Shape_4_" class="st0" d="M1516.6,1079.1c-9.8,0.1-19.5,2.5-28.2,7.1l-80.6-76.3l-0.2-0.2c-7,10.3-14.9,20.4-24.6,33.6
			l-118-111.6c-33.5,28.5-76,44.2-120,44.2c-6.7,0-13.3-0.4-20-1.1l-25.2,113.7c36.8,19,53.8,62.4,39.7,101.3
			c-14.2,38.9-55.1,61.3-95.5,52.2c-40.4-9.1-67.8-46.9-63.8-88.1c3.9-41.3,37.9-73.1,79.3-74.5l25.2-113.7
			c-42-14.5-77.4-43.5-99.9-81.8l-91.6,40.7c15.7,62.3-18.9,126.3-79.7,147.2s-127.4-8.2-153.4-67.1c-25.9-58.8-2.5-127.7,54-158.4
			c56.4-30.8,127-13.1,162.4,40.5l91.4-40.6c-27.1-85.3,10.5-177.7,89.4-219.9l-17.9-44.6c-6,1.2-12.2,1.8-18.3,1.8
			c-37.6,0.1-72.2-20.2-90.4-53.1s-16.9-73.1,3.2-104.8c-43.9,5.7-86.6,13.4-124.6,21.2c-83.3,16.5-145.6,46.1-185.1,87.9
			c-32.6,34.9-57.8,76.1-74.1,121c-6.9,20-12.5,40.3-16.8,61l-2.1,8.8c-4.9,18.7-11.7,37-20.1,54.4c-3.9,8.7-7.8,17.4-11.1,26.2
			c-2,4.5-3.1,9.2-3.2,14.1c0.9,6.7,8.8,14,17.1,21.6c17,12,28,30.9,30.2,51.6c-0.4,9.8-3.1,19.4-7.9,27.9
			c-25.9,54.4-57.7,105.9-94.7,153.4c-15.7,19.1-19,26.8-19.1,29.9c3.8,3.7,8,7.1,12.4,10c5.4,3.8,11.1,7.1,17,9.9
			c17.6,9,41.7,21.3,46.7,46.5c2.9,15.6,1,31.7-5.5,46.2c-3.6,7.6-7.3,14.2-10.6,19.9c-1,1.8-2.1,3.8-3.1,5.6
			c8.5,6.9,20.2,15.6,25.2,19.3c4.5,3.3,7.5,8.4,8.2,13.9c0.7,5.6-0.8,11.2-4.3,15.6c-3.1,4-5.7,8.3-7.9,12.8l4.3,2.5
			c18.3,7.8,32.2,23.3,38.2,42.2c3,14.6,2.4,29.7-1.8,43.9c-0.9,4.3-1.9,8.6-2.5,12.9c-1.2,12.5,0.5,25.1,4.9,36.8
			c4.5,19.1,23.3,31.2,42.5,27.5c60.2-14.5,119.5-32.4,177.6-53.7h0.1c21.5-7.3,41-14.1,56.4-19.5c14.3-5,25.1-8.8,30.7-10.6
			c85.8-27.1,103.2-58.1,102.7-79.4c-0.3-11.4,8.8-20.8,20.1-21.1h0.5c11.2,0,20.4,8.9,20.6,20.2c1.2,51.4-43,91.7-131.5,119.7
			c-5.3,1.7-15.8,5.3-29.6,10.2l-18.6,6.5c34,37.8,58.9,82.9,72.5,131.8l468.3-1.3l-1.4-2.1c-5.9-8.6-11.3-17.6-16-27
			c-10.3-20.8-18.8-42.4-25.6-64.6c-12.5-42.3-21.2-85.6-26-129.4c-8.1-69.1,2.3-139.1,30.3-202.7c16.5-34.5,36.9-66.9,60.8-96.7
			l5.2-7.1l3.9,3.7l72.8,68.9c-11,25.1-4.1,54.4,16.8,72.1s51,19.5,73.9,4.5s33.2-43.3,25.4-69.6
			C1568.2,1097,1544,1079.1,1516.6,1079.1z M566.9,831.4c-11.4,0-20.6-9.2-20.6-20.6c0-11.4,9.2-20.6,20.6-20.6s20.6,9.2,20.6,20.6
			C587.5,822.1,578.3,831.4,566.9,831.4z M613.7,735.6l-2.1,9c-1.6,7.2-7,13-14.1,15.2s-14.8,0.4-20.2-4.7
			c-5.4-5.1-7.6-12.7-5.9-19.9l2.1-8.9c4-18.9,9.1-37.6,15.3-55.9c14.4-39.7,36.6-76.1,65.4-107.1c31.6-30.5,70.6-52.3,113.2-63.4
			c7.1-2.3,14.9-0.6,20.4,4.4s7.8,12.7,6.1,20s-7.3,13-14.5,15.1c-35.6,9-68.4,27-95.2,52.3c-24.9,26.8-44.2,58.4-56.7,92.9
			C622,701.3,617.3,718.3,613.7,735.6z"/>
	</g>
</g>
</svg>
