<?xml version="1.0" encoding="utf-8"?>
<!-- Generator: Adobe Illustrator 21.0.0, SVG Export Plug-In . SVG Version: 6.00 Build 0)  -->
<svg version="1.1" id="Layer_1" xmlns="http://www.w3.org/2000/svg" xmlns:xlink="http://www.w3.org/1999/xlink" x="0px" y="0px"
	 width="2000px" height="2000px" viewBox="0 0 2000 2000" style="enable-background:new 0 0 2000 2000;" xml:space="preserve">
<style type="text/css">
	.st0{fill:none;stroke:#FFFFFF;stroke-width:36;stroke-linecap:round;stroke-linejoin:round;stroke-miterlimit:10;}
	.st1{fill:#38B9DB;}
	.st2{fill:#FFFFFF;}
	.st3{fill:none;stroke:#38B9DB;stroke-width:51;stroke-miterlimit:10;}
	.st4{fill:none;stroke:#38B9DB;stroke-width:51;stroke-linecap:round;stroke-miterlimit:10;}
</style>
<title>038 - Mind Map</title>
<desc>Created with Sketch.</desc>
<path class="st0" d="M1337.7,1541"/>
<path class="st1" d="M749.3,1338.3L749.3,1338.3c-56.3,0-99.4-50.1-91-105.7l0,0c19.8-131.3,132.6-228.5,265.4-228.5h133.8
	c132.8,0,245.7,97.1,265.4,228.5l0,0c8.4,55.7-34.7,105.7-91,105.7l0,0H749.3z"/>
<path class="st1" d="M765.5,1282.2v133.3c0,23.1,15.5,43.3,37.8,49.4c44.8,12.3,81.2,45.1,98.4,87.7c7.7,19,26.1,31.5,46.7,31.5
	h84.5c20.5,0,39-12.5,46.7-31.5c17.2-42.6,53.6-75.4,98.4-87.7c22.3-6.1,37.8-26.3,37.8-49.4v-133.3c0-19.1-15.4-34.5-34.5-34.5H800
	C781,1247.7,765.5,1263.1,765.5,1282.2z"/>
<g>
	<path class="st1" d="M688.3,1355.3L688.3,1355.3c-47.9,27.7-60.3,91.3-26.2,134.9l49.5,63.3c24.5,31.2,68.2,39.7,102.5,19.9l0,0
		c34.4-19.8,48.9-61.9,34-98.7l-30-74.5C797.5,1348.8,736.2,1327.7,688.3,1355.3z"/>
	<path class="st1" d="M1292.9,1355.3L1292.9,1355.3c47.9,27.7,60.3,91.3,26.2,134.9l-49.5,63.3c-24.5,31.2-68.2,39.7-102.5,19.9l0,0
		c-34.4-19.8-48.9-61.9-34-98.7l30-74.5C1183.7,1348.8,1245,1327.7,1292.9,1355.3z"/>
	<circle class="st2" cx="990.6" cy="828.6" r="242.2"/>
</g>
<path class="st2" d="M801.8,1001.9c-36.4,17.6-68.8,42.5-95.3,73.5c-35.3,41.4-58.3,91.8-66.4,145.7c-5,33.2,4.7,66.8,26.6,92.2
	c4.4,5.2,9.3,9.8,14.5,14.1c-28.5,16.6-48.5,44.6-54.7,77c-6.3,32.5,1.8,66,22.2,92l49.5,63.3c20,25.6,50.4,39.3,81.2,39.3
	c17.5,0,35.1-4.4,51.1-13.6c44.1-25.4,62.9-80.2,43.9-127.4l-30-74.5c-2-5-4.4-9.8-7-14.3H1007c12.8,0,23.1-10.4,23.1-23.1
	c0-12.8-10.3-23.1-23.1-23.1H793.3v-48.7c0-6.3,5.1-11.4,11.4-11.4h381.1c6.3,0,11.4,5.1,11.4,11.4v51.9c-22.9,12.6-41,32.7-51,57.4
	l-30,74.5c-19,47.2-0.1,102,43.9,127.4c16,9.2,33.6,13.6,51.1,13.6c30.8,0,61.2-13.7,81.2-39.3l49.5-63.3
	c20.4-26.1,28.5-59.6,22.2-92.1c-6.3-32.4-26.2-60.4-54.7-77c5.2-4.2,10-8.9,14.5-14.1c21.9-25.4,31.6-59.1,26.6-92.2
	c-8.1-53.9-31.1-104.3-66.4-145.7c-26.4-31-58.9-56-95.3-73.5C963.4,1185.9,801.8,1001.9,801.8,1001.9z M685.8,1228
	c13.2-88,71.9-160.7,154.2-192.4c43.7,31.6,97.3,50.3,155.2,50.3c57.9,0,111.5-18.7,155.2-50.3c82.3,31.7,141,104.4,154.2,192.4
	c3,19.9-2.8,40-15.9,55.2c-11.6,13.5-27.8,21.8-45.4,23.6v-32.6c0-23.5-14.1-43.7-34.3-52.7v-28c0-12.8-10.3-23.1-23.1-23.1
	s-23.1,10.4-23.1,23.1v23.1h-335v-23.1c0-12.8-10.3-23.1-23.1-23.1s-23.1,10.4-23.1,23.1v28c-20.3,8.9-34.5,29.2-34.5,52.8v32.6
	c-17.5-1.8-33.8-10.1-45.4-23.6C688.7,1268,682.9,1247.9,685.8,1228z M807.3,1545.3c-24.2,14-55.5,7.9-72.8-14.1l-49.5-63.3
	c-12.1-15.5-16.9-35.4-13.2-54.8s15.7-36,32.7-45.9c17-9.8,37.5-11.8,56.1-5.4s33.5,20.6,40.8,38.8l30,74.5
	C841.9,1501.2,831.5,1531.3,807.3,1545.3z M1305.6,1467.9l-49.5,63.3c-17.2,22-48.5,28.1-72.8,14.1c-24.2-14-34.6-44.1-24.2-70.1
	l30-74.5c7.4-18.2,22.2-32.4,40.8-38.8c7.2-2.5,14.7-3.7,22.1-3.7c11.8,0,23.5,3.1,33.9,9.1c17,9.8,28.9,26.5,32.7,45.9
	C1322.5,1432.5,1317.7,1452.5,1305.6,1467.9z"/>
<path class="st2" d="M1115,1370.2c4.3-4.3,6.8-10.3,6.8-16.3c0-6.1-2.5-12-6.8-16.3s-10.3-6.8-16.3-6.8c-6.1,0-12,2.5-16.3,6.8
	s-6.8,10.3-6.8,16.3c0,6.1,2.5,12,6.8,16.3s10.3,6.8,16.3,6.8C1104.8,1377,1110.7,1374.6,1115,1370.2z"/>
<path class="st1" d="M928.2,940c16.5,20.4,41,32,67.1,32c26.2,0,50.6-11.7,67.1-32c8-9.9,6.5-24.5-3.4-32.5s-24.5-6.5-32.5,3.4
	c-7.7,9.5-19.1,14.9-31.2,14.9s-23.5-5.4-31.2-14.9c-8-9.9-22.6-11.4-32.5-3.4C921.6,915.5,920.1,930,928.2,940z"/>
<path class="st1" d="M893.5,844.8c2.9-2.9,7.7-2.9,10.7,0c4.5,4.5,10.4,6.8,16.3,6.8s11.8-2.3,16.3-6.8c9-9,9-23.7,0-32.7
	c-21-21-55.1-21-76.1,0c-9,9-9,23.7,0,32.7C869.8,853.9,884.5,853.9,893.5,844.8z"/>
<path class="st1" d="M1070.1,851.6c5.9,0,11.8-2.3,16.3-6.8c2.9-2.9,7.7-2.9,10.7,0c9,9,23.7,9,32.7,0s9-23.7,0-32.7
	c-21-21-55.1-21-76.1,0c-9,9-9,23.7,0,32.7C1058.2,849.4,1064.1,851.6,1070.1,851.6z"/>
<path class="st2" d="M1092.6,1531.4c-11.8-4.8-25.3,1-30.1,12.9c-4,9.9-14,16.6-25,16.6H953c-11,0-21.1-6.7-25-16.6
	c-4.8-11.9-18.2-17.6-30.1-12.9c-11.9,4.8-17.6,18.2-12.9,30.1c11.1,27.7,37.8,45.6,68,45.6h84.5c30.2,0,56.9-17.9,68-45.6
	C1110.2,1549.6,1104.5,1536.1,1092.6,1531.4z"/>
<circle class="st3" cx="995.3" cy="851.5" r="242.2"/>
<path class="st4" d="M997.8,608.9c47.3,0,85.7-38.4,85.7-85.7s-38.4-85.7-85.7-85.7s-85.7,38.4-85.7,85.7"/>
</svg>
