<?xml version="1.0" encoding="utf-8"?>
<!-- Generator: Adobe Illustrator 21.0.0, SVG Export Plug-In . SVG Version: 6.00 Build 0)  -->
<svg version="1.1" id="Layer_1" xmlns="http://www.w3.org/2000/svg" xmlns:xlink="http://www.w3.org/1999/xlink" x="0px" y="0px"
	 width="2000px" height="2000px" viewBox="0 0 2000 2000" style="enable-background:new 0 0 2000 2000;" xml:space="preserve">
<style type="text/css">
	.st0{fill:#36B9DB;}
</style>
<path id="Forma_1" class="st0" d="M732.3,959.3c34.2,0.1,67.6,10.4,95.9,29.7c28.3-19.3,61.7-29.6,95.9-29.7c0.6,0,1.2,0,1.8,0
	c-40.3-31.2-64.1-79.1-64.8-130c-51.4-18.7-90.6-61.2-105.1-113.9c-79.1,30.1-135.5,108.1-135.5,199.7c0,25.8,4.5,51.3,13.5,75.5
	C662.7,970.2,697.1,959.3,732.3,959.3z M924.1,1016.9c-39.2-0.1-75.7,20.5-95.9,54.1c-20.3-33.6-56.7-54.1-95.9-54.1
	c-61.7,0-111.8,49.7-111.8,111.1c0,23.7,7.6,46.8,21.7,65.8c57.8,77.7,89,171.9,89.1,268.8v70c0.1,21,17.1,37.9,38.1,37.9H887
	c21,0.1,38-16.9,38.1-37.9v-70c0-96.8,31.2-191.1,89.1-268.8c14.2-19,21.8-42.1,21.8-65.8C1035.9,1066.7,985.8,1016.9,924.1,1016.9z
	 M1372.5,540.8l-67.9-95.3c-12.2-17.1-35.9-21.1-53.1-9l-57.5,40.5c-77,54.2-169,83.3-263.2,83.2c-3,0-5.9,0-8.9-0.1
	c-0.7,0-1.4,0-2.2,0c-61.4-0.3-111.3,49.3-111.6,110.6c-0.3,61.4,49.3,111.3,110.6,111.6c0.4,0,0.8,0,1.1,0c2.9,0,5.7-0.1,8.6-0.3
	c-15.9,35.7-11.7,77.2,11,109.1c35.9,50.1,105.4,61.9,155.8,26.4c19.4-13.6,34-33.2,41.5-55.7c30.6-92,89.9-171.8,169.2-227.6
	l57.5-40.5c17.1-12,21.2-35.5,9.2-52.6C1372.6,540.9,1372.5,540.9,1372.5,540.8z M932.2,647.5c-17.3,0-31.4,14-31.5,31.3
	c-0.1,16-13.2,28.9-29.2,28.7c-15.8-0.1-28.6-12.9-28.7-28.7c0-49,40.1-88.9,89.4-88.9c15.9-0.3,29,12.4,29.3,28.3
	c0.3,15.9-12.4,29-28.3,29.3C932.9,647.5,932.6,647.5,932.2,647.5L932.2,647.5z"/>
</svg>
