<?xml version="1.0" encoding="utf-8"?>
<!-- Generator: Adobe Illustrator 21.0.0, SVG Export Plug-In . SVG Version: 6.00 Build 0)  -->
<svg version="1.1" id="Layer_1" xmlns="http://www.w3.org/2000/svg" xmlns:xlink="http://www.w3.org/1999/xlink" x="0px" y="0px"
	 width="2000px" height="2000px" viewBox="0 0 2000 2000" style="enable-background:new 0 0 2000 2000;" xml:space="preserve">
<style type="text/css">
	.st0{display:none;}
	.st1{fill:none;}
	.st2{fill:#36B9DB;}
	.st3{fill:#38B9DB;}
	.st4{fill:#FFFFFF;}
</style>
<g id="Layer_1_copy">
	<g id="Layer_2" class="st0">
	</g>
	<rect x="307.3" y="374.6" class="st1" width="1377.2" height="1250.3"/>
	<path class="st2" d="M1566.4,695.3c2.4,15.2,16.5,25.7,31.7,23.4c15.2-2.4,25.7-16.5,23.4-31.7l-5.6-37.3
		c-2.4-15.2-16.5-25.7-31.7-23.4c-15.2,2.4-25.7,16.5-23.4,31.7L1566.4,695.3z"/>
	<path class="st2" d="M1606.6,775.1c-15.2,2.4-25.7,16.5-23.4,31.7l8.4,55.8c2.4,15.2,16.5,25.7,31.7,23.4
		c15.2-2.4,25.7-16.5,23.4-31.7l-8.4-55.8C1635.9,783.4,1621.8,772.8,1606.6,775.1"/>
	<path class="st2" d="M1631.7,942.5c-15.2,2.4-25.7,16.5-23.4,31.7l7.9,52.9c2.4,15.2,16.5,25.7,31.7,23.4
		c15.2-2.4,25.7-16.5,23.4-31.7l-7.9-52.9C1661.1,950.7,1647,940.1,1631.7,942.5"/>
	<path class="st2" d="M1030.9,1050.4c15.2,2.4,29.4-8.2,31.7-23.4l7.9-52.9c2.4-15.2-8.2-29.4-23.4-31.7
		c-15.2-2.4-29.4,8.2-31.7,23.4l-7.9,52.9C1005.3,1034,1015.7,1048.2,1030.9,1050.4"/>
	<path class="st2" d="M1055.7,886c15.2,2.4,29.4-8.2,31.7-23.4l8.4-55.8c2.4-15.2-8.2-29.4-23.4-31.7c-15.2-2.4-29.4,8.2-31.7,23.4
		l-8.4,55.8C1030.1,869.5,1040.5,883.9,1055.7,886"/>
	<rect x="977" y="524" class="st1" width="724.9" height="951.6"/>
	<path class="st2" d="M1080.9,718.7c15.1,2.4,29.4-8.1,31.7-23.4l5.6-37.3c2.4-15.2-8.2-29.4-23.4-31.7
		c-15.2-2.4-29.4,8.2-31.7,23.4l-5.6,37.3C1055,702.2,1065.7,716.5,1080.9,718.7"/>
	<path class="st2" d="M1146.2,1419.8h71.7c12.1,10.7,49.6,55.8,123.4,55.8c70,0,105.8-40.3,123.4-55.8h71.7
		c92.1,0,167.4-75,167.4-167.4c0-80.1-57-148-133.4-163.9l-63-422.3C1494.8,584,1424.1,524,1340.9,524s-153.9,60.1-166.3,142.4
		l-62.9,422.4c-76.4,15.7-133.4,83.8-133.4,163.9C978.8,1344.8,1053.8,1419.8,1146.2,1419.8 M1138.6,1141.2
		c13-0.9,23.8-10.7,25.7-23.8l66-443c8.2-54.9,54.9-95,111-95c56,0,102.8,39.8,111,94.7l66,443.1c2,12.9,12.6,22.8,25.7,23.8
		c58.4,3.8,104,52.7,104,111.2c0,40.7-21.8,76.4-54.5,95.7c-59.5-22.9-127.4-8.9-173.2,36.8c-1.4,1-29.5,34.7-79,34.7
		c-52.9,0-74-32.9-95.8-49.5l0,0c-44.6-33.8-103.9-42.3-156.3-22.1c-32.6-19.5-54.5-55-54.5-95.7
		C1034.6,1193.9,1080.2,1145.1,1138.6,1141.2"/>
	<rect x="977" y="524" class="st1" width="724.9" height="951.6"/>
	<g>
		<g>
			<path class="st3" d="M336.9,809.8c0,194.2,77.2,380.5,214.5,517.8l92.6,92.6c25.7,25.7,60.7,40.2,97.1,40.2
				c75.8,0,137.3-61.5,137.3-137.3v-47.5l56-468.6c0-167-137.1-302-304.9-298.7C466.4,511.6,336.9,646.8,336.9,809.8z M448.9,809.8
				c0-104.5,83.7-189.5,186.7-189.6c49.8,0,96.7,19.4,132,54.6c35.3,35.3,54.7,82.2,54.7,132l0,0c0,0.5,0,0.9,0,1.4v107
				c0,38.7-15.1,75.1-42.4,102.4c-8.8,8.8-13.6,20.4-13.6,32.8s4.8,24,13.6,32.8c20.1,20.1,31.2,46.9,31.2,75.4v14.1
				c0,48.4-39.4,87.7-87.7,87.7h-1.9c-48.4,0-87.7-39.4-87.7-87.7h56c0,17.5,14.2,31.7,31.7,31.7h1.9c17.5,0,31.7-14.2,31.7-31.7
				v-14.1c0-13.5-5.3-26.2-14.8-35.8c-19.3-19.3-30-45-30-72.4c0-27.3,10.6-53.1,30-72.4c16.8-16.8,26-39.1,26-62.8v-107
				c0-31.1-24.7-56.9-55-57.4c-15.2-0.3-29.4,5.5-40.2,16.1s-16.7,24.8-16.7,39.9h-56c0-30.3,11.9-58.6,33.5-79.9
				c19.5-19.2,44.6-30.3,71.7-31.9c-20.2-12.3-43.5-18.9-67.9-18.9c-72,0-130.6,59.9-130.6,133.5c0,59.7,11.9,117.3,35.4,171.3
				l-51.4,22.4C462.4,942.4,448.9,877.3,448.9,809.8z"/>
		</g>
	</g>
	<g>
		<ellipse class="st4" cx="1181.3" cy="1383.1" rx="81.6" ry="17.7"/>
		<ellipse class="st4" cx="1500.7" cy="1383.1" rx="81.6" ry="17.7"/>
	</g>
	<path class="st2" d="M1214.2,614.5l-74.4,472.8c0,0-214.8,70.7-79.5,258.5c8.8,16.7,146.4,16.7,163.2,42.8
		c16.7,26,141.3,89.3,230.6-7.4c20.5-14.9,104-29.8,140.3-20.5c17.7,3.7,187-148.8-39.9-264.1c-18.6-81.8-89.3-482.1-89.3-482.1
		S1353.7,437.3,1214.2,614.5z"/>
</g>
</svg>
