<?xml version="1.0" encoding="utf-8"?>
<!-- Generator: Adobe Illustrator 21.0.0, SVG Export Plug-In . SVG Version: 6.00 Build 0)  -->
<svg version="1.1" id="Layer_1" xmlns="http://www.w3.org/2000/svg" xmlns:xlink="http://www.w3.org/1999/xlink" x="0px" y="0px"
	 width="2000px" height="2000px" viewBox="0 0 2000 2000" style="enable-background:new 0 0 2000 2000;" xml:space="preserve">
<style type="text/css">
	.st0{fill:#36B9DB;}
</style>
<path id="Forma_1" class="st0" d="M1282.2,477.5c-142.7,0-234.2,98.4-282.2,187.1c-48-88.7-139.5-187.1-282.2-187.1
	c-181,0-319.8,146.3-319.8,340.4c0,50.6,10.2,97.4,28.9,142.3H696L756.8,839c12-23.8,51.1-23.8,63.1,0l109.5,218.3l39-77.7
	c12-23.8,51.1-23.8,63.1,0l39,77.7L1180.1,839c12-23.8,51.1-23.8,63.1,0l60.8,121.2h269.1c18.7-44.9,28.9-91.7,28.9-142.3
	C1602,623.8,1463.2,477.5,1282.2,477.5z M1282.2,1030.5c-13.3,0-25.6-7.5-31.6-19.4l-39-77.7l-109.5,218.3
	c-8.8,17.4-30,24.4-47.5,15.6c-6.8-3.4-12.2-8.9-15.6-15.6l-39-77.7l-39,77.7c-12,23.8-51.1,23.8-63.1,0L788.4,933.3l-39,77.7
	c-6,11.9-18.2,19.4-31.6,19.4H463.9c72.6,113.8,203.3,221.9,366.9,359.5c45.9,38.6,94.8,79.7,146.1,124c13.3,11.4,32.9,11.4,46.2,0
	c51.3-44.3,100.1-85.4,146.1-124c163.6-137.5,294.3-245.6,366.9-359.5L1282.2,1030.5L1282.2,1030.5z"/>
</svg>
