<?xml version="1.0" encoding="utf-8"?>
<!-- Generator: Adobe Illustrator 21.0.0, SVG Export Plug-In . SVG Version: 6.00 Build 0)  -->
<svg version="1.1" id="Layer_1" xmlns="http://www.w3.org/2000/svg" xmlns:xlink="http://www.w3.org/1999/xlink" x="0px" y="0px"
	 width="2000px" height="2000px" viewBox="0 0 2000 2000" style="enable-background:new 0 0 2000 2000;" xml:space="preserve">
<style type="text/css">
	.st0{fill:#36B9DB;}
	.st1{fill:#FFFFFF;stroke:#FFFFFF;stroke-width:8.827;stroke-miterlimit:10;}
	.st2{fill:none;}
	.st3{display:none;}
</style>
<g>
	<path class="st0" d="M769.8,479.6v71.2H612.3c-21.8,0-35.4,17.6-35.4,39.4v67.6c0,0-121-4.8-130,73.4c0,22.7-1.7,112.5,133.3,226.6
		c0,39.1-4,89.9,0.8,115.9c-5.9,10.3-126.3,124.5-130.2,195.3c-3.9,14.8-6,77.8,53,98.8c24.1,7,62.4,18.9,186.7-3
		c6.7-1.5,67.5,70.3,92.4,77.6c6,4.2,197.8,119.3,207.9,120.6c10.1,1.3,10.1,1.3,10.1,1.3s166.9-83.1,209.8-116.3
		c42.9-33.2,94-84.8,94-84.8s111.3,22.3,148.9,14.6s67.6-13.9,91.4-50c6.8-20.1,45.4-75.7-107.9-233.4c-12-12-16.3-16.7-16.3-16.7
		l0.8-119.9c0,0,105-106,118.1-154.7c6.6-17.5,29.7-62-5.1-109.2c-20.9-17.3-30.8-31.2-114.8-37.2c1-8,0.8-42,0.5-70
		c-0.2-21.6-17.8-39-39.4-39h-149.1v-68.2c0-23.7-19.2-42.9-42.9-42.9h-378C787.1,436.7,769.8,455.9,769.8,479.6z"/>
	<g>
		<path class="st1" d="M1420.3,1078c0.6-10.6,1-21.3,1-32v-88.2c22.6-21.9,42.6-43.5,59.8-64.3c65.4-79.2,86.7-144.3,61.4-188
			c-18.7-32.5-59.5-48.5-121.3-47.9v-68.8c0-21-17-38.1-38.1-38.1h-154.7v-76c0-21-17-38.1-38.1-38.1h-70.6
			c-9.2,0-16.5,7.4-16.5,16.5s7.4,16.5,16.5,16.5h70.6c2.8,0,5,2.2,5,5v76H805.8v-76c0-2.8,2.3-5,5-5h233.6
			c9.2,0,16.5-7.4,16.5-16.5s-7.4-16.5-16.5-16.5H810.8c-21,0-38.1,17-38.1,38.1v76H618c-21,0-38.1,17-38.1,38.1v68.9
			c-61.7-0.8-102.5,15.4-121.3,47.9c-35.5,61.4,22.8,156.3,121.3,252.1v88.3c0,10.7,0.4,21.4,1,32
			c-111,107.8-154.5,197.7-122.4,253.4c18.2,31.6,58.6,47.8,118.1,47.8c14.5,0,30.1-0.9,46.6-2.8c23-2.7,47.6-7.1,73.7-13.2
			c35.9,42.2,79.1,78.5,128.5,106.7l156.2,89.4c5.8,3.4,12.4,5,19,5s13-1.7,19-5l124.9-71.6c7.9-4.5,10.7-14.6,6.1-22.6
			c-4.5-7.9-14.6-10.6-22.6-6.1l-124.8,71.5c-1.5,0.9-3.5,0.9-5,0L842,1441.1c-41.2-23.6-77.8-53.2-109.1-87.2
			c11.1-3.1,22.3-6.5,33.8-9.9c25.4,25.7,54.5,48.1,86.6,66.6l130,74.5c5.3,3,11.2,4.5,17.2,4.5s11.9-1.5,17.2-4.5l130-74.5
			c32.1-18.5,61.2-40.9,86.7-66.6c11.5,3.6,22.8,7,33.9,10.1c-22.3,24.4-47.5,46.6-75.2,65.8c-7.5,5.2-9.3,15.5-4.1,23
			c3.2,4.6,8.4,7.1,13.6,7.1c3.2,0,6.6-0.9,9.4-3c34.7-24.1,65.6-52.4,92.4-83.8c25.8,6.1,50.2,10.5,72.9,13c16.9,1.9,32.7,3,47.4,3
			c59.4,0,99.9-16.3,118.1-47.8C1574.8,1275.6,1531.3,1185.8,1420.3,1078L1420.3,1078z M1514,722.1c17.3,29.8-4,84.8-58.3,150.5
			c-10.3,12.5-21.8,25.4-34.3,38.5V690.8C1469.3,690.2,1502,701.2,1514,722.1L1514,722.1z M543.8,870.5
			c-53-64.8-73.7-118.9-56.7-148.4c12.1-20.9,44.8-31.9,92.7-31.4v63c0,9.2,7.4,16.5,16.5,16.5s16.5-7.4,16.5-16.5V588.9
			c0-2.7,2.3-5,5-5H1383c2.8,0,5,2.3,5,5v354.9c-11,10.5-22.6,20.9-34.6,31.4v-315c0-19-15.5-34.5-34.5-34.5H682
			c-19,0-34.5,15.5-34.5,34.5v315c-12-10.5-23.6-21-34.6-31.4V828.9c0-9.2-7.4-16.5-16.5-16.5s-16.5,7.4-16.5,16.5v82
			C566.8,897.2,554.6,883.7,543.8,870.5L543.8,870.5z M1130.9,1270.8c46.9-35.1,79-88.7,85.8-149.8c36.8-24.8,71.6-50.1,104-75.6
			v9.7c0,93.7-35.2,182.9-96,250.9C1194.7,1296.1,1163.3,1284.3,1130.9,1270.8L1130.9,1270.8z M776.5,1306.1
			c-60.8-68.1-96-157.2-96-250.9v-9.8c31.9,25.2,65.6,49.7,99.9,72.9c1.3,0.9,2.6,1.4,4,1.9c6.6,61.4,38.8,115.4,85.8,150.6
			C837.9,1284.3,806.6,1296.1,776.5,1306.1L776.5,1306.1z M816.3,1096.9c0-57.2,65-184.4,174-340.5c2.5-3.5,6.2-5.4,10.3-5.4
			s8,1.9,10.3,5.4c108.9,156,174,283.4,174,340.5c0,101.7-82.7,184.3-184.3,184.3S816.3,1198.6,816.3,1096.9L816.3,1096.9z
			 M1216.9,1080.9c-5.2-40.4-28.5-97.7-69.6-171c-36.9-65.8-79.8-130.1-109.3-172.3c-8.5-12.3-22.6-19.5-37.4-19.5
			c-15,0-28.9,7.4-37.4,19.5c-29.6,42.3-72.4,106.5-109.3,172.3c-41,73.3-64.4,130.7-69.6,171c-37-25.6-71.9-51.6-103.8-77.8v-343
			c0-0.8,0.6-1.4,1.4-1.4h637.2c0.8,0,1.4,0.6,1.4,1.4v343.1C1288.8,1029.2,1253.9,1055.3,1216.9,1080.9L1216.9,1080.9z
			 M619.6,1343.5c-70,8.1-116.9-2.1-132.3-28.7c-21.3-36.9,16.1-110.4,98.3-194.8c12,78,42.7,151.4,88.7,214.2
			C655.1,1338.3,636.7,1341.4,619.6,1343.5L619.6,1343.5z M709.4,1326.1C648,1247.2,613,1148.9,613,1046v-57.4
			c11.1,10.1,22.7,20,34.6,29.9v36.7c0,96.9,34.6,189.2,94.7,261.7C731.1,1320.3,720.1,1323.2,709.4,1326.1L709.4,1326.1z
			 M1131.3,1381.8l-130,74.5c-0.4,0.3-1,0.3-1.4,0l-130-74.5c-24.7-14.1-47.2-30.8-67.6-49.7c32.9-11.5,67.4-24.8,102.7-40.1
			c28.9,14.2,61.3,22.2,95.6,22.2s66.7-8,95.6-22.2c35.4,15.2,69.7,28.7,102.7,40.1C1178.5,1351,1156,1367.8,1131.3,1381.8
			L1131.3,1381.8z M1258.9,1316.9c60.1-72.5,94.7-164.9,94.7-261.7v-36.5c12-9.9,23.5-20,34.6-29.9v57.3
			c0,102.7-34.7,201.1-96.3,280.1C1281.1,1323.4,1270.2,1320.3,1258.9,1316.9L1258.9,1316.9z M1514,1314.9
			c-15.4,26.7-62.6,36.8-132.9,28.5c-17-1.9-35.1-5-53.9-9c45.9-63,76.5-136.4,88.5-214.2C1497.8,1204.6,1535.3,1277.9,1514,1314.9
			L1514,1314.9z"/>
		<rect id="SVGID_3_" x="446.6" y="436.7" class="st2" width="1107.8" height="1127.6"/>
		<path class="st1" d="M861.9,714.6h-124c-9.2,0-16.5,7.4-16.5,16.5s7.4,16.5,16.5,16.5h124c9.2,0,16.5-7.4,16.5-16.5
			C878.5,722.1,871.1,714.6,861.9,714.6L861.9,714.6z"/>
		<path class="st1" d="M818.8,780.4H738c-9.2,0-16.5,7.4-16.5,16.5s7.4,16.5,16.5,16.5h80.8c9.2,0,16.5-7.4,16.5-16.5
			C835.4,787.9,828,780.4,818.8,780.4L818.8,780.4z"/>
		<path class="st1" d="M775.7,846.2H738c-9.2,0-16.5,7.4-16.5,16.5s7.4,16.5,16.5,16.5h37.7c9.2,0,16.5-7.4,16.5-16.5
			C792.2,853.7,784.9,846.2,775.7,846.2L775.7,846.2z"/>
		<path class="st1" d="M1264.6,714.6h-124c-9.2,0-16.5,7.4-16.5,16.5s7.4,16.5,16.5,16.5h124c9.2,0,16.5-7.4,16.5-16.5
			C1281.1,722.1,1273.7,714.6,1264.6,714.6L1264.6,714.6z"/>
		<path class="st1" d="M1264.6,780.4h-80.8c-9.2,0-16.5,7.4-16.5,16.5s7.4,16.5,16.5,16.5h80.8c9.2,0,16.5-7.4,16.5-16.5
			C1281.1,787.9,1273.7,780.4,1264.6,780.4L1264.6,780.4z"/>
		<path class="st1" d="M1264.6,846.2h-37.7c-9.2,0-16.5,7.4-16.5,16.5s7.4,16.5,16.5,16.5h37.7c9.2,0,16.5-7.4,16.5-16.5
			C1281.1,853.7,1273.7,846.2,1264.6,846.2L1264.6,846.2z"/>
	</g>
	<g id="Layer_2" class="st3">
	</g>
</g>
</svg>
