<?xml version="1.0" encoding="utf-8"?>
<!-- Generator: Adobe Illustrator 21.0.0, SVG Export Plug-In . SVG Version: 6.00 Build 0)  -->
<svg version="1.1" xmlns="http://www.w3.org/2000/svg" xmlns:xlink="http://www.w3.org/1999/xlink" x="0px" y="0px" width="2000px"
	 height="2000px" viewBox="0 0 2000 2000" style="enable-background:new 0 0 2000 2000;" xml:space="preserve">
<style type="text/css">
	.st0{display:none;}
	.st1{display:inline;}
	.st2{fill:#38B9DB;}
	.st3{fill:none;stroke:#FFFFFF;stroke-width:79.28;stroke-miterlimit:10;}
	.st4{fill:#FFFFFF;}
	.st5{fill:none;}
	.st6{fill:none;stroke:#38B9DB;stroke-width:114.7953;}
</style>
<g id="Layer_1" class="st0">
	<g class="st1">
		<ellipse class="st2" cx="1002.9" cy="1000.5" rx="575.9" ry="581"/>
		<ellipse class="st3" cx="998.1" cy="1000.5" rx="575.9" ry="581"/>
		<g id="Layer_1_1_">
			<g>
				<g>
					<g>
						<path class="st4" d="M1455,1064.5c-12.5-2.4-24.3,6.1-26.7,18.6c-36.9,206.1-215.7,355.6-425.4,355.6
							c-238.4,0-432.2-193.9-432.2-432.2s193.9-432.2,432.2-432.2c99.3,0,192.4,34.3,266.4,92.5c-42.7,19.1-72.4,62-72.4,111.7
							c0,42.1-34.3,76.4-76.4,76.4c-54.9,0-101.3,36.4-116.9,86.1c-8.5-6.5-18-11.7-28.4-14.6c2.4-11.5,5.2-18.4,8.5-26.2
							c4.1-10,8.5-21.4,11.9-40.4c6.3-37.1-4.4-74.2-30.1-105.2c-30.9-37.3-80.7-60.7-130-61.6c-89.4-1.5-163.8,70.1-165.5,159.6
							c-0.6,26.5,5.2,52.7,17.1,76.2c6.1,12.3,7.2,26.2,2.8,38.6c-12.3,34.5-18.4,70.9-17.8,107.8c1.1,79.2,33.9,154.5,92,212.3
							c58.2,57.5,133.8,89.6,213.1,90.2c0.6,0,1.3,0,1.9,0c15.9,0,31.7-1.3,47.2-3.6c44-6.7,84.2-29.2,113.2-63.3
							c16.1-19.1,28.4-40.8,35.8-64.4c9.5,5,20.6,7.8,31.9,7.8c0.2,0,0.4,0,0.6,0c37.7-0.4,68.1-31.7,68.1-70.1v-59.2
							c0-39.3-19.9-75.5-53.1-97c-24.7-15.9-54.2-21.4-82.4-16.3c-1.7-15.9-8.9-30.4-20.4-41.7c-13.1-13-30.4-19.9-49.1-19.7
							c-8.2,0-16.3,1.7-23.9,4.4c9.7-31.1,38.8-53.8,73.1-53.8c67.5,0,122.3-54.9,122.3-122.3c0-39,29.2-71.1,66.9-75.7
							c57.1,57.5,98.7,131.5,116,214.8c2.6,12.5,14.8,20.4,27.3,17.8c12.5-2.6,20.4-14.8,17.8-27.3
							c-19.3-92.5-66.2-177.6-133.8-243.6c-1.1-1.3-2.4-2.4-3.6-3.4c-8.7-8.2-17.8-16.5-27.1-24.1
							c-85.1-70.1-192.8-108.6-303.3-108.6c-263.6,0-478.1,214.4-478.1,478.1s214.4,478.1,478.1,478.1c112.8,0,222.4-40,308.7-112.8
							c85.1-72,142.7-171.6,162.1-280.7C1475.8,1078.7,1467.6,1066.8,1455,1064.5z M959.3,969.9c16.5,3.6,29.5,17.4,31.3,34.5
							l-14.8,15l-63.1-21c3.4-1.7,6.7-3.2,10-4.4C935.4,988.3,948.9,982.2,959.3,969.9z M1056.1,1003.1c4.3-4.4,10-6.7,16.1-7
							c6.1,0,11.9,2.4,16.3,6.5c4.4,4.3,6.7,10,7,16.1c0,6.1-2.4,11.9-6.5,16.3l-1.9,1.9c-5.5,4.6-10.4,9.7-14.8,15.2l-34.5,35.4
							c-15.4,15.9-37.3,25-59.7,25c-8.9,0-17.6-1.5-26-4.3l-94.4-31.5c-12.1-4.1-25,2.6-29,14.6c-4.1,12.1,2.6,25,14.6,29l94.4,31.5
							c13.1,4.4,26.7,6.5,40.4,6.5c24.3,0,48-7,68.4-19.5v54.4c0,12.7,10.4,23,23,23s23-10.4,23-23v-68.7c0-15.4,5-30.1,14.1-41.9
							l11.9-12.1c4.3-3.4,8.9-6.3,13.9-8.7c21.4-10,46.2-8.2,66,4.4c19.9,12.7,31.7,34.5,31.7,58.2v59.2c0,13.1-10.2,23.9-22.6,24.1
							h-0.2c-11.9,0-21.7-9.1-22.8-20.8v-45.3c0-12.7-10.4-23-23-23c-12.6,0-23,10.4-23,23v46.4c0,70.3-50.1,129.1-119.3,139.7
							c-13.7,2.1-27.7,3.2-41.7,3c-138.6-0.9-257.3-118.5-259.3-256.9c-0.4-31.5,4.6-62.2,15-91.6c8.5-23.9,6.7-51-5-74.5
							c-8.5-16.9-12.7-35.4-12.3-54.6c1.3-63.5,53.6-114.5,117.1-114.5c0.6,0,1.3,0,1.9,0c36.2,0.6,72.6,17.8,95.2,45.1
							c12.1,14.4,25.2,37.9,20.1,68.1c-2.4,14.1-5.5,22-9.1,30.9c-4.4,10.8-9.3,23.2-13,45.5c-2.1,13-5.2,14.6-24.3,23
							c-5.2,2.4-11.2,4.8-17.6,8.2l-0.4,0.2c-15.6,8-25,24.3-23.7,41.9c1.3,17.4,13,32.1,29.5,37.7l74.9,25
							c13.3,4.4,28.4,0.9,38.1-9.3L1056.1,1003.1z"/>
					</g>
				</g>
				<g>
					<g>
						<path class="st4" d="M1458,983.7c-12.7,0-23,10.4-23,23v2.6c0,12.7,10.2,23,22.8,23c0,0,0,0,0.2,0c12.7,0,22.8-10.2,23-22.8
							v-2.8C1481.1,994,1470.7,983.7,1458,983.7z"/>
					</g>
				</g>
			</g>
		</g>
		<g id="Layer_2_1_" class="st0">
		</g>
	</g>
	<g class="st1">
		<path id="path" class="st5" d="M-167.5,659.9L-119,344l-307.4,16.9"/>
	</g>
</g>
<g id="Layer_1_copy">
	<g>
		<path class="st2" d="M843.6,784.3c209,0.2,378.3,169.7,378.2,378.7c0,209.1-169.3,378.7-378.2,378.7S465.4,1372.2,465.4,1163
			S634.8,784.3,843.6,784.3z"/>
		<g>
			<path id="path_2_" class="st5" d="M1532.2,871.5l55.7-362.7L1235,528.3"/>
		</g>
		<g>
			<path id="path_1_" class="st6" d="M1524.1,889.1l50.5-362.7l-352.9,19.4"/>
		</g>
		<path class="st6" d="M1562.4,538.3l-439.9,386.4"/>
	</g>
</g>
</svg>
