<?xml version="1.0" encoding="utf-8"?>
<!-- Generator: Adobe Illustrator 21.0.0, SVG Export Plug-In . SVG Version: 6.00 Build 0)  -->
<svg version="1.1" xmlns="http://www.w3.org/2000/svg" xmlns:xlink="http://www.w3.org/1999/xlink" x="0px" y="0px" width="2000px"
	 height="2000px" viewBox="0 0 2000 2000" style="enable-background:new 0 0 2000 2000;" xml:space="preserve">
<style type="text/css">
	.st0{fill:none;}
	.st1{fill:#38B9DB;}
	.st2{display:none;}
</style>
<g id="Layer_1">
	<rect x="419.1" y="472.4" class="st0" width="1162.4" height="1055.3"/>
	<path class="st1" d="M1095.2,1466.6H948.3c-6.6,0-12.1,5.5-12.1,12.1v29.2c0,6.6,5.5,12.1,12.1,12.1h146.9
		c6.6,0,12.1-5.5,12.1-12.1v-29.2C1107.3,1472.1,1101.8,1466.6,1095.2,1466.6z"/>
	<path class="st1" d="M1292.7,1445.9h-140.4c-6.3,0-11.6,5.3-11.6,11.6v27.9c0,6.3,5.3,11.6,11.6,11.6h140.4
		c6.3,0,11.6-5.3,11.6-11.6v-27.9C1304.3,1451.2,1299,1445.9,1292.7,1445.9z"/>
	<path class="st1" d="M1494.3,1445.9h-140.4c-6.3,0-11.6,5.3-11.6,11.6v27.9c0,6.3,5.3,11.6,11.6,11.6h140.4
		c6.3,0,11.6-5.3,11.6-11.6v-27.9C1505.9,1451.2,1500.6,1445.9,1494.3,1445.9z"/>
	<path class="st1" d="M823.4,1341.3c79.6-154.7,104.3-195.6,136.3-218.7l-70.7-70.7l-444.7,444.7c-3.2,3.2-1.9,8.7,2.5,10
		c16.3,4.7,52.5,13.5,97.6,13.5c35.8,0,77.5-5.5,119.2-22.7c18.4-7.6,37-17.6,55-30.3C756.8,1439.5,793.2,1399.5,823.4,1341.3z"/>
	<path class="st1" d="M1526.4,438c-12.7-12.7-29.2-19-45.7-19s-33,6.3-45.5,19L895,978.2c-7.8,7.8-7.8,20.3,0,27.9l33,33l55.2-55.2
		L1141,826.1l127.8-127.8c0.8-0.8,1.5-1.5,2.5-2.1c0.2-0.2,0.4-0.2,0.6-0.4c0.4-0.4,0.8-0.6,1.3-0.9c13.1-9.5,31.3-8.2,43.2,3.4
		l4.7,4.7c10.4,10.4,12.5,26,6.4,38.5c-1.5,3.2-3.8,6.1-6.4,8.7l-170.2,170.2l-118.3,118.3l-52.1,52.1l33,33c3.8,3.8,8.9,5.9,14,5.9
		c5.1,0,10-1.9,14-5.9l540.2-540.2c25.2-25.2,25.2-66,0-91.2L1526.4,438z"/>
	<g>
		<path class="st1" d="M1191.3,893.4l105-104.8c-3.8-4.5-7.8-9.3-11.9-13.6c-18-19.3-38.7-35.6-61-48.5l-44.4,44.4L973.9,975.7
			l-68.4,68.4l17.8,17.8l0,0l49.9,49.9l64.6-64.6L1191.3,893.4z"/>
		<path class="st1" d="M595.9,1292.8L871.7,1017l-12.5-12.5c-10-10-10-26.3,0-36.4l273.7-273.7c-13.3-2.1-26.7-3.2-40.2-3.2
			c-72.8,0-142.3,30.3-191.8,83.6L884,792.6l-16.9-17.8c-98.4-106-264.2-112-370.2-13.6c-4.7,4.4-9.3,8.9-13.6,13.6
			c-104.4,112.6-104.4,286.8,0,399.4L595.9,1292.8z"/>
		<path class="st1" d="M1049.1,1157.8c-4.9,4.9-11.6,7.6-18.2,7.6c-6.6,0-13.1-2.5-18.2-7.6l-22.6-22.6
			c-30.1,23.7-56.1,67.3-132.5,215.9c-33,64.1-49.3,84.9-94.4,118.1l9.5,9.9c13.1-9.3,25-19,41.1-32h71.6c12.3,0,22.4,9.3,22.4,20.8
			v50.2c0,11.4-10,20.8-22.4,20.8l-56.9-0.9l30.5,32.2c13.1,13.6,34.7,14.4,48.3,1.3c0.4-0.4,0.9-0.9,1.3-1.3l29.4-30.9h-8.5
			c-8,0-14.6-9.5-14.6-21v-51c0-11.6,6.4-21,14.6-21h96.9l258-272.2c79.2-85.5,98.4-206.4,57.2-309L1049.1,1157.8z"/>
	</g>
	<path class="st1" d="M874.2,1466.6h-48.7c-27.3,21.2-57.1,38.9-89.5,53.3h138.2c8.3,0,15.2-5.5,15.2-12.1v-29.2
		C889.3,1472.1,882.5,1466.6,874.2,1466.6z"/>
</g>
<g id="Layer_2" class="st2">
</g>
</svg>
