<?xml version="1.0" encoding="utf-8"?>
<!-- Generator: Adobe Illustrator 21.0.0, SVG Export Plug-In . SVG Version: 6.00 Build 0)  -->
<svg version="1.1" id="Layer_1" xmlns="http://www.w3.org/2000/svg" xmlns:xlink="http://www.w3.org/1999/xlink" x="0px" y="0px"
	 width="2000px" height="2000px" viewBox="0 0 2000 2000" style="enable-background:new 0 0 2000 2000;" xml:space="preserve">
<style type="text/css">
	.st0{fill:#36B9DB;}
</style>
<path id="Forma_1" class="st0" d="M1613.3,1205.7c-24.8-126.3-79.8-246.3-150.3-353.4c-32.5-49-70.5-94.2-113.1-134.6
	c-32.9-31.3-79.7-75.5-128.5-74.5h-1.8c-79.1,3.4-105.7,96.2-118.4,159.8c-7.6,38.3-12.5,77.1-14.6,116.2
	c-23.1-26.1-34.8-63.5-34.8-111.3V645.9H948.4v161.8c0,48-11.7,85.3-34.8,111.3c-2.1-39-7-77.8-14.6-116.2
	c-12.7-63.6-39.3-156.4-118.4-159.8h-1.8c-49-1.1-95.7,43.3-128.5,74.5c-42.7,40.4-80.7,85.6-113.1,134.6
	c-70.7,107.1-125.6,227.2-150.4,353.4c-17.4,88.7-55.6,309.1,84.4,316.7c81.3,4.3,154-64.8,221.7-99.7
	c54-27.9,109.8-58.3,147.7-107.3c43.3-55.9,54.3-130,63.9-198.1c3.5-25.1,6.2-50.4,8.1-75.7c16.5-7.2,32.1-16.3,46.4-27.2
	c15.5-11.9,29.4-25.8,41.2-41.4c11.7,15.6,25.6,29.6,41.2,41.4c14.3,10.9,29.9,20.1,46.4,27.2c1.8,25.3,4.5,50.7,8.1,75.7
	c9.6,68,20.7,142.2,63.9,198.1c37.8,48.9,93.7,79.5,147.7,107.3c67.6,34.9,140.5,104,221.7,99.7
	C1668.9,1514.8,1630.7,1294.3,1613.3,1205.7z M1051.8,590.7v-72.8c0-22.3-18.1-40.4-40.4-40.4c0,0-0.1,0-0.1,0h-22.4
	c-22.3-0.1-40.4,18-40.5,40.3c0,0,0,0.1,0,0.1v72.8L1051.8,590.7L1051.8,590.7z"/>
</svg>
