<?xml version="1.0" encoding="utf-8"?>
<!-- Generator: Adobe Illustrator 21.0.0, SVG Export Plug-In . SVG Version: 6.00 Build 0)  -->
<svg version="1.1" xmlns="http://www.w3.org/2000/svg" xmlns:xlink="http://www.w3.org/1999/xlink" x="0px" y="0px" width="2000px"
	 height="2000px" viewBox="0 0 2000 2000" style="enable-background:new 0 0 2000 2000;" xml:space="preserve">
<style type="text/css">
	.st0{fill:none;}
	.st1{fill:#36B9DB;}
	.st2{display:none;}
</style>
<g id="Layer_1">
	<rect x="528.5" y="412" class="st0" width="990.9" height="1176.2"/>
	<g>
		<path class="st1" d="M1173.5,842.1c0,60.7-0.2,121.3,0.2,182c0,9-2.4,12.3-11.6,14c-30.2,5.5-60.7,5.5-91,6.4
			c-35.7,1-71.6,1.7-106.6,10.6c-65.5,16.5-107.3,57-125.6,122c-2.4,8.5,1.7,17.2,9.5,19.9c8.1,2.9,16.6-0.3,20.3-8.7
			c4.3-10.1,7.8-20.6,12.1-30.5c18-40.6,51.6-61,92.7-71.2c35.9-9,72.8-9,109.5-9.5c39.7-0.5,78.9-3.5,117.3-15.1
			c15.8-4.7,26.5-15.3,36.2-27.2c18.4-22.4,28.6-49.2,40.6-75c2.9-6.2,5.7-12.7,9.2-18.5c17.7-30.3,57.4-42.5,88.6-27
			c31.2,15.3,46.6,55.6,31.9,87.7c-25.3,55.6-48.5,112.5-83.2,163.4c-20.6,30.3-45.8,56.7-71.1,82.8
			c-40.2,41.4-79.2,84.4-122.2,122.9c-27.7,24.8-40.4,51.5-38.3,88c1.7,32.2,0.3,64.6,0.3,97.1c0,18.5-9.5,29.3-27.9,31.5
			c-2.8,0.3-5.7,0.3-8.5,0.3c-107.1,0-214.4,0-321.5,0c-23,0-38.6-10.9-42.1-29.8c-1.7-9.4-0.2-18.9,0.5-28.2
			c2.3-31.2,2.9-62-6.8-92.4c-5.9-18.7-16.1-34.7-31-47.5c-46.3-39.3-65.7-90.5-66.5-149.9c-2.1-124.4-0.3-248.9-0.9-373.3
			c-0.2-34,17.7-59.6,45.9-66.7c26.3-6.6,50.4-2.1,71.6,15.6c7.1,6.1,14.6,9.7,24.1,5.4c6.4-2.9,10.2-8.1,12.1-14.7
			c3.6-11.8,8.3-23,14.9-33.4c18.9-29.5,48-38.1,80.1-24.1c10.9,4.9,21,11.3,30.7,18.4c12.7,9.2,23.9,7.1,33.1-5.7
			c4.9-6.9,9.7-14,14.9-20.4c17.7-21.7,40.4-27,66.9-20.6c11.3,2.8,22.7,5.4,34.3,5c14.9-0.3,21.1-6.8,21.3-21.5
			c0.2-16.3,0-32.8,0-49c0-2.1-0.9-4.9,1.4-6.1c2.4-1.4,4,1.2,5.5,2.6c33.6,30.2,88.9,31.7,122.5,1c1.2-1.2,2.6-3.5,4.7-2.3
			c2.6,1.6,1.6,4.5,1.6,6.9c0,37.4,0,74.9,0,112.1C1173.5,793.8,1173.5,817.8,1173.5,842.1 M850,944.2h-0.2
			c-1-27.2-1.9-54.4-3.1-81.8c-0.7-18.2,0-36.4-2.3-54.4c-2.1-15.9-12.8-25-29.8-25.3c-15.8-0.3-27.2,8.8-30.5,23.7
			c-1.9,8.3,0,16.3,0.2,24.4c0.7,46.4,2.8,92.7,6.6,139c0.5,6.1,2.4,11.6,5.7,16.6c8,12,23.6,17.9,37.1,13.9
			c10.6-3.1,16.3-13,16.3-28.8C850,962.4,850,953.4,850,944.2 M1003.5,860.5c-1.6-28.8,0.2-53.6-1.6-78.3
			c-1.6-21.7-22.4-35-42.5-26.7c-15.9,6.6-19.8,20.3-19.2,35.5c1,31.4,0.7,62.7,0.9,94.1c0.2,15.4,0.2,30.7,0.5,46.1
			c0.3,16.1,9.5,27.4,22.2,28.1c16.6,0.9,33.4-11.4,36.9-27.6C1006.3,906.7,1002.1,881.4,1003.5,860.5 M685.5,925.1
			c0-16.3,0.2-32.6,0-48.9c0-5.5-1-11.3-1.9-16.8c-1-7.5-5.5-12.7-11.6-16.3c-10.9-6.8-22.4-7.5-34-1.2
			c-11.4,6.1-15.6,16.3-15.1,28.2c1.7,33.4,0.3,67.1,3.8,100.5c1.6,15.6,9.7,25.1,24.1,30.3c20.3,7.3,33.8-1.6,34.5-23
			C685.9,960.3,685.5,942.6,685.5,925.1"/>
		<path class="st1" d="M1164.3,578.9c-0.2,27-15.9,49.7-38.6,57.2c-23.7,7.6-50.4-0.5-64.8-19.9c-15.4-20.8-15.8-48-0.5-69.3
			c8.1-11.4,16.8-22.7,25.1-34.1c6.6-9.2,14-17.7,17.5-28.8c0.9-2.8,3.6-7.3,5.9-1.7c10.2,25.3,31.2,43,44.9,65.9
			C1159.5,558.1,1165.7,567.8,1164.3,578.9 M1083.1,577.5c0-3.8,0-7.5,0-11.3c0.2-3.8,0.5-8.1-4.2-9.2c-4.9-1-6.2,3.5-7.8,6.8
			c-7.6,15.3-4.7,29.8,4.3,43.5c1.7,2.6,3.8,5.4,7.6,3.6c3.5-1.7,3.6-4.9,2.8-8.1C1083.8,594.3,1083.4,586,1083.1,577.5"/>
		<path class="st1" d="M1039.6,513.3c-5.5-40.9,0-74.5,34.3-93.6c34.3-19.1,93.2-3.6,99,53c1.2,12.1,1,24.3-0.9,36.7
			c-9.5-12.7-22-22.9-28.1-38c-7.3-18.7-21-29.6-37.3-29.5c-17.5,0.2-30.8,11.3-38.3,29.8C1062.1,487.4,1050,499,1039.6,513.3"/>
	</g>
</g>
<g id="Layer_2" class="st2">
</g>
</svg>
