<?xml version="1.0" encoding="utf-8"?>
<!-- Generator: Adobe Illustrator 21.0.0, SVG Export Plug-In . SVG Version: 6.00 Build 0)  -->
<svg version="1.1" id="Layer_1" xmlns="http://www.w3.org/2000/svg" xmlns:xlink="http://www.w3.org/1999/xlink" x="0px" y="0px"
	 width="2000px" height="2000px" viewBox="0 0 2000 2000" style="enable-background:new 0 0 2000 2000;" xml:space="preserve">
<style type="text/css">
	.st0{fill:none;}
	.st1{fill:#FFFFFF;}
	.st2{fill:#38B9DB;}
</style>
<g id="Layer_1_copy_2">
	<g id="Layer_2_1_">
	</g>
	<rect x="307.3" y="374.6" class="st0" width="1377.2" height="1250.3"/>
	<g>
		<ellipse class="st1" cx="1181.3" cy="1383.1" rx="81.6" ry="17.7"/>
		<ellipse class="st1" cx="1500.7" cy="1383.1" rx="81.6" ry="17.7"/>
	</g>
	<circle class="st2" cx="995.2" cy="1000.5" r="507.5"/>
	<path class="st2" d="M751.9,555.1l4.7,23.5c8.6,42.8,29.6,82.1,60.4,112.9l0,0l-71.8,71.8c-72.8,72.8-72.9,190.8-0.1,263.6
		c35,35,82.4,54.6,131.8,54.6H914c-85.8,85.8-110.8,215.3-62.9,326.8l37.8,88.2c76.4,16.3,155.5,14.9,231.2-4.3l-25.4-36.1
		c-48.7-68.2-55.7-157.7-18.3-232.6h93.4c76.4,0,143.1-52,161.6-126.1l0,0c17.5-70-12.1-143.4-73.3-181.6l-62-38.8l-0.3-0.4
		c28-19.6,51.1-45.3,67.8-75.1l0,0c23.5-42.4,33-91.1,27-139.3l-10.1-82C1123,473.7,919.1,463.9,752.1,555L751.9,555.1z"/>
	<path class="st2" d="M1079.2,1603.7c14.1-2,28.2-4.4,42-7.3l-8.4-39.7c-12.9,2.7-26,5-39.2,6.8L1079.2,1603.7z"/>
	<path class="st2" d="M1152,1547l11.2,39c150.2-42.9,278-142,357-276.7l-35-20.6C1411.5,1414.5,1292.2,1507,1152,1547z"/>
	<path class="st2" d="M877.6,444.3c12.9-2.7,26-5,39.2-6.8l-5.6-40.2c-14.1,2-28.2,4.4-42,7.3L877.6,444.3z"/>
	<path class="st2" d="M470.3,691.7l35,20.6C578.9,586.5,698.3,494,838.4,454l-11.2-39C677.1,457.9,549.2,557,470.3,691.7z"/>
	<path class="st1" d="M874.3,1514.1l0.8,1.8l2.5-1.1c284.5,65.3,568-112.3,633.4-396.7c65.3-284.5-112.3-568-396.7-633.4
		S546.2,597,480.9,881.5C415.8,1164.6,591.5,1447.2,874.3,1514.1z M1482.4,1000.5c-0.3,217.6-144.6,408.7-353.8,468.5l-17.4-24.4
		c-41.8-58.5-49.8-134.6-21.3-200.5h79.9c103.1,0.2,186.9-83.3,187-186.5c0.1-64.6-33.2-124.7-88-158.8l-38.3-24
		c60.6-53.9,90.7-134.3,80.2-214.8l-4.3-34.1C1418,718.3,1482.5,855.7,1482.4,1000.5z M1261.3,592.7l9.1,72.4
		c14.2,114-66.6,218-180.7,232.3c-8.6,1.1-17.2,1.6-25.8,1.6H893.7v40.6h170.1c46.7-0.1,92.5-13.4,131.9-38.4l51.3,32.1
		c68.5,42.7,89.5,132.8,46.8,201.3c-26.7,42.9-73.6,68.9-124.1,68.9H974.9v40.6h71c-26.4,75.5-14.4,159.1,32.2,224.1l7.8,10.9
		c-60.4,11.6-122.4,11.5-182.7-0.2l-33.6-78.4c-43.7-101.2-22.7-218.7,53.2-298.5h173.9v-40.6H876.9c-91.7,0-166.1-74.3-166.1-166.1
		c0-44.1,17.5-86.4,48.7-117.5l58.1-58.1c0.5,0.4,1,1,1.5,1.4c43.5,36.2,98.4,56.1,155,56.1h122.7v-40.6H974
		c-96,0-178.7-67.8-197.5-161.9l-1.7-8.4C929.9,487.2,1115.6,497.2,1261.3,592.7L1261.3,592.7L1261.3,592.7z M737.8,587.2
		c8.4,38.2,25.9,73.8,51.1,103.8l-58.2,58.2c-80.7,80.6-80.8,211.4-0.1,292.1c37.1,37.1,86.9,58.7,139.4,60.5
		c-68.2,90.6-82.5,210.8-37.5,314.8l21.5,50.2c-257.4-77.9-402.9-349.7-325-607.1C563.2,746.4,637.4,649.6,737.8,587.2z"/>
	<rect x="589.2" y="817.8" class="st1" width="40.6" height="40.6"/>
	<rect x="548.6" y="1020.8" class="st1" width="40.6" height="40.6"/>
	<rect x="711" y="1122.3" class="st1" width="40.6" height="40.6"/>
	<rect x="1340.3" y="817.8" class="st1" width="40.6" height="40.6"/>
	<rect x="690.7" y="1284.7" class="st1" width="40.6" height="40.6"/>
	<rect x="1340.3" y="1203.5" class="st1" width="40.6" height="40.6"/>
	<rect x="1401.2" y="1000.5" class="st1" width="40.6" height="40.6"/>
</g>
</svg>
