<?xml version="1.0" encoding="utf-8"?>
<!-- Generator: Adobe Illustrator 21.0.0, SVG Export Plug-In . SVG Version: 6.00 Build 0)  -->
<svg version="1.1" id="Layer_1" xmlns="http://www.w3.org/2000/svg" xmlns:xlink="http://www.w3.org/1999/xlink" x="0px" y="0px"
	 width="2000px" height="2000px" viewBox="0 0 2000 2000" style="enable-background:new 0 0 2000 2000;" xml:space="preserve">
<style type="text/css">
	.st0{fill:#36B9DB;}
</style>
<path id="Forma_1" class="st0" d="M1621.8,950.9c-66.3-108.7-155.3-196-267.3-261.9S1124.5,590,1000,590
	c-124.5,0-242.6,33-354.6,98.9s-201,153.3-267.3,261.9c-9.5,16.6-14.2,33-14.2,49.1c0,16.1,4.7,32.5,14.2,49.1
	c66.2,108.7,155.3,196,267.3,262c111.9,66,230.1,98.9,354.6,98.9c124.5,0,242.6-32.9,354.6-98.6c111.9-65.7,201-153.2,267.3-262.3
	c9.5-16.6,14.2-33,14.2-49.1C1636,983.9,1631.3,967.5,1621.8,950.9z M847.7,756.2c42.4-42.5,93.1-63.7,152.3-63.7
	c18.9,0,34.2,15.3,34.2,34.2s-15.3,34.2-34.2,34.2l0,0c-40.7,0-75.5,14.5-104.4,43.4c-28.9,29-43.3,63.8-43.3,104.6
	c0.1,18.8-15.1,34.2-33.9,34.3s-34.2-15.1-34.3-33.9c0-0.1,0-0.2,0-0.4C784.2,849.6,805.4,798.7,847.7,756.2z M1308.4,1232.4
	c-94.9,57.7-197.7,86.5-308.4,86.5c-110.7,0-213.5-28.8-308.4-86.5c-94.9-57.6-173.8-135.1-236.7-232.4
	c71.9-112,162.1-195.8,270.4-251.3C696.4,798.1,682,851.5,682,908.9c0,87.8,31.1,162.9,93.3,225.3s137.1,93.6,224.7,93.6
	c87.6,0,162.4-31.2,224.7-93.6s93.3-137.5,93.3-225.3c0-57.4-14.4-110.8-43.3-160.1C1383,804.2,1473.2,888,1545.1,1000
	C1482.2,1097.3,1403.3,1174.8,1308.4,1232.4z"/>
</svg>
