<?xml version="1.0" encoding="utf-8"?>
<!-- Generator: Adobe Illustrator 21.0.0, SVG Export Plug-In . SVG Version: 6.00 Build 0)  -->
<svg version="1.1" id="Layer_1" xmlns="http://www.w3.org/2000/svg" xmlns:xlink="http://www.w3.org/1999/xlink" x="0px" y="0px"
	 width="2000px" height="2000px" viewBox="0 0 2000 2000" style="enable-background:new 0 0 2000 2000;" xml:space="preserve">
<style type="text/css">
	.st0{fill:#38B9DB;}
	.st1{fill:#FFFFFF;}
</style>
<g>
	<g>
		<path class="st0" d="M966,1097.7c-50.6,3-90.7,45-90.7,96.3c0,25.6,9.9,48.8,26.1,66.1c17.6,18.8,42.6,30.5,70.4,30.5
			c27.7,0,52.8-11.8,70.4-30.5c16.2-17.3,26.1-40.5,26.1-66.1c0-51.3-40.1-93.3-90.7-96.3c-1.9-0.1-3.9-0.2-5.8-0.2
			C969.9,1097.5,968,1097.6,966,1097.7z"/>
	</g>
	<g>
		<path class="st0" d="M901.4,1260.1c-36.8,15.8-81.1,42.5-81.1,113.2v139.3c56.5,37.4,109.7,60.1,151.5,60.1
			c41.7,0,94.9-22.7,151.5-60.1v-139.3c0-70.6-44.3-97.4-81.1-113.2c-17.6,18.8-42.7,30.5-70.4,30.5
			C944,1290.6,919,1278.9,901.4,1260.1z"/>
	</g>
	<g>
		<path class="st0" d="M977.6,1097.7c50.6,3,90.7,45,90.7,96.3c0,25.6-9.9,48.8-26.1,66.1c36.8,15.8,81.1,42.5,81.1,113.2v139.3
			c86.3-57.2,180.5-148.6,254.2-246.2V1145c0-94.6-59.3-130.4-108.6-151.6c-23.6,25.1-57.1,40.8-94.3,40.8
			c-37.2,0-70.7-15.7-94.3-40.8C1040.3,1010.7,993.7,1037.5,977.6,1097.7L977.6,1097.7z"/>
	</g>
	<g>
		<path class="st0" d="M1174.6,775.9c-71.4,0-129.2,57.8-129.2,129.2c0,34.2,13.3,65.2,34.9,88.4c23.6,25.1,57.1,40.8,94.3,40.8
			c37.2,0,70.7-15.7,94.3-40.8c21.7-23.2,35-54.2,35-88.4C1303.9,833.7,1246,775.9,1174.6,775.9z"/>
	</g>
	<g>
		<g>
			<path class="st0" d="M971.8,393.1c-69.6,49.7-200.4,197.4-536.5,269v312.2c0,82.7,54.3,190.7,130.9,292.2v-121.4
				c0-94.6,59.3-130.4,108.5-151.6c-21.7-23.2-34.9-54.2-34.9-88.4c0-71.4,57.8-129.2,129.2-129.2s129.2,57.8,129.2,129.2
				c0,34.2-13.3,65.2-35,88.4c40,17.2,86.7,44,102.8,104.3c2-0.1,3.9-0.2,5.8-0.2c1.9,0,3.9,0.1,5.8,0.2
				c16.1-60.2,62.7-87.1,102.8-104.3c-21.7-23.2-34.9-54.2-34.9-88.4c0-71.4,57.8-129.2,129.2-129.2S1304,833.7,1304,905.1
				c0,34.2-13.3,65.2-35,88.4c49.3,21.1,108.6,57,108.6,151.6v121.4c76.5-101.5,130.8-209.5,130.8-292.2V662.1
				c-215.2-45.9-346.3-122.9-431-185.5C1029.8,441.5,996.8,411,971.8,393.1L971.8,393.1z"/>
		</g>
		<g>
			<path class="st0" d="M769,775.9c-71.4,0-129.2,57.8-129.2,129.2c0,34.2,13.3,65.2,34.9,88.4c23.6,25.1,57.1,40.8,94.3,40.8
				s70.7-15.7,94.3-40.8c21.7-23.2,35-54.2,35-88.4C898.2,833.7,840.3,775.9,769,775.9L769,775.9z"/>
		</g>
		<g>
			<path class="st0" d="M674.7,993.5c-49.3,21.1-108.5,57-108.5,151.6v121.4c73.6,97.5,167.9,189,254.2,246.2v-139.3
				c0-70.6,44.2-97.4,81.1-113.2c-16.2-17.3-26.1-40.5-26.1-66.1c0-51.3,40.1-93.3,90.7-96.3c-16-60.2-62.7-87.1-102.8-104.3
				c-23.6,25.1-57.1,40.8-94.3,40.8C731.8,1034.3,698.3,1018.6,674.7,993.5L674.7,993.5z"/>
		</g>
		<g>
			<path class="st1" d="M1513.3,638.6c-69.4-14.7-135.3-34.1-195.8-57.6c-12.3-4.8-26.2,1.3-31,13.7c-4.8,12.3,1.3,26.2,13.7,31
				c57.3,22.3,119.2,41,184.2,55.7v292.9c0,57.6-30.1,134.2-82.9,216.3v-45.5c0-90.4-49-135-95.9-160.5
				c14.1-23.2,22.3-50.4,22.3-79.5c0-84.5-68.7-153.2-153.2-153.2s-153.2,68.7-153.2,153.2c0,29,8.1,56.2,22.2,79.4
				c-26.6,14.3-53.4,34.4-71.9,65.5c-18.5-31.1-45.2-51.1-71.9-65.5c14.1-23.2,22.3-50.4,22.3-79.4c0-84.5-68.7-153.2-153.2-153.2
				s-153.2,68.7-153.2,153.2c0,29.1,8.1,56.3,22.3,79.5c-46.9,25.5-95.9,70.1-95.9,160.5v45.6c-52.8-82.1-82.9-158.8-82.9-216.4
				V681.4c274.6-62.2,413.1-176.5,488.4-238.5c8.8-7.2,16.9-13.9,24.2-19.7c7.3,5.8,15.4,12.5,24.2,19.7c28.1,23.2,63,52,109.6,82.9
				c11,7.3,25.9,4.3,33.2-6.7c7.3-11,4.3-25.9-6.7-33.2c-44.5-29.5-78.4-57.4-105.6-79.9c-15.5-12.8-28.8-23.8-40.8-32.3
				c-8.3-5.9-19.5-5.9-27.8,0c-12,8.6-25.4,19.6-40.8,32.3c-79,65.1-211.1,174.1-486.8,232.8c-11.1,2.4-19,12.1-19,23.5v312.2
				c0,55.2,21.1,121,62.7,195.6c36.7,65.8,87.7,135.1,147.4,200.2c100.5,109.6,245.3,226.6,350.4,226.6s249.9-117.1,350.3-226.6
				c26.5-28.9,51.2-58.5,73.7-88.3c0.5-0.7,53.6-75.9,73.7-111.9c41.6-74.6,62.7-140.5,62.7-195.6V662.1
				C1532.3,650.8,1524.4,641,1513.3,638.6L1513.3,638.6z M1174.6,799.8c58.1,0,105.3,47.2,105.3,105.2s-47.2,105.2-105.3,105.2
				c-58,0-105.2-47.2-105.2-105.2S1116.6,799.8,1174.6,799.8z M971.8,1121.5c40,0,72.5,32.5,72.5,72.5s-32.5,72.6-72.5,72.6
				s-72.5-32.6-72.5-72.6C899.3,1154.1,931.8,1121.5,971.8,1121.5z M769,799.8c58.1,0,105.3,47.2,105.3,105.2
				s-47.2,105.2-105.3,105.2c-58,0-105.2-47.2-105.2-105.2S711,799.8,769,799.8L769,799.8z M796.4,1373.3v92.9
				c-45.5-34.4-93.4-78.2-139.6-128.5c-24.1-26.3-46.4-52.8-66.6-79.2V1145c0-70.8,36.8-102.3,79.9-123.1
				c26.7,22.6,61.2,36.3,98.9,36.3s72.2-13.7,98.9-36.3c25.6,12.4,50.6,29.5,65.6,57.9c-47.7,16.1-82.1,61.2-82.1,114.2
				c0,20.6,5.2,40.1,14.4,57.1C830.9,1271.3,796.4,1306,796.4,1373.3L796.4,1373.3z M1099.3,1499.5c-49.7,31.4-94.3,49.2-127.5,49.2
				c-33.3,0-77.8-17.8-127.5-49.2v-126.3c0-47.7,24-70,52.8-84.7c20.5,16.3,46.5,26.1,74.7,26.1c28.2,0,54.1-9.8,74.7-26.1
				c28.9,14.8,52.8,37.1,52.8,84.7V1499.5L1099.3,1499.5z M1353.5,1258.4c-20.3,26.4-42.6,52.9-66.7,79.2
				c-46.2,50.3-94,94.1-139.5,128.5v-92.9c0-67.2-34.6-101.9-69.4-122.2c9.2-17,14.4-36.4,14.4-57.1c0-53-34.5-98.1-82.2-114.2
				c15-28.5,40.1-45.5,65.6-57.9c26.7,22.6,61.2,36.3,98.9,36.3c37.7,0,72.2-13.7,98.9-36.3c43.1,20.9,80,52.4,80,123.1
				L1353.5,1258.4z"/>
		</g>
	</g>
</g>
</svg>
