<?xml version="1.0" encoding="utf-8"?>
<!-- Generator: Adobe Illustrator 21.0.0, SVG Export Plug-In . SVG Version: 6.00 Build 0)  -->
<svg version="1.1" xmlns="http://www.w3.org/2000/svg" xmlns:xlink="http://www.w3.org/1999/xlink" x="0px" y="0px" width="2000px"
	 height="2000px" viewBox="0 0 2000 2000" style="enable-background:new 0 0 2000 2000;" xml:space="preserve">
<style type="text/css">
	.st0{fill:#38B9DB;}
	.st1{display:none;}
</style>
<g id="Layer_1">
	<g>
		<g>
			<g>
				<path class="st0" d="M964.7,417.8c17.6,43.9,30,90.4,40.1,136.6c5.3,24.4,9.7,49.1,13.1,73.9c-0.6-4.4-1.2-8.8-1.8-13.2
					c5.7,42.2,8.3,84.8,6.5,127.3c-1.8,42.4-5.6,84.8-11.2,126.9c0.6-4.4,1.2-8.8,1.8-13.2c-6.2,46.6-14.8,92.9-25.3,138.8
					c-7.2,31.8-15.7,63.3-23.4,95c-8.1,33.7-12.7,68.4-15.2,102.9c-3.3,44.2-2.5,88.6,2,132.6c7,68.3,21.2,135.5,43.7,200.5
					c4.3,12.3,11.3,23,22.9,29.8c10.7,6.2,26.4,8.9,38.4,5c12-3.9,23.6-11.4,29.8-22.9c6.1-11.4,9.4-25.7,5-38.4
					c-18.4-52.7-31.5-107.1-39-162.3c0.6,4.4,1.2,8.8,1.8,13.2c-7.1-53-9-106.8-4.7-160.1c0.9-11.8,2.2-23.5,3.7-35.2
					c-0.6,4.4-1.2,8.8-1.8,13.2c4.7-34.7,13.7-68.1,22.2-101.9c12.7-50.6,23.7-101.6,31.8-153.2c5.7-36.8,10.4-73.9,13.6-111
					c3.2-36.5,5.3-73.1,4.1-109.8c-2.4-68.6-13.8-137.3-31-203.7c-8.4-32.3-18-64.5-30.1-95.7c-0.2-0.5-0.4-0.9-0.5-1.4
					c-5-12.5-10.9-22.7-22.9-29.8c-10.7-6.2-26.4-8.9-38.4-5c-12,3.9-23.6,11.4-29.8,22.9C963.8,390.5,959.8,405.6,964.7,417.8
					L964.7,417.8z"/>
			</g>
		</g>
		<g>
			<g>
				<path class="st0" d="M1081.4,688.5c9-2.3,18.2-3.7,27.3-4.9c-2.8,0.4-5.6,0.7-8.4,1.2c30.9-4.1,62.2-4.5,93-0.5
					c-2.8-0.4-5.6-0.7-8.4-1.2c22.6,3.1,44.9,8.7,66.1,17.6c-2.5-1.1-5.1-2.2-7.6-3.2c16.7,7.1,32.3,16,46.6,27
					c-2.2-1.6-4.3-3.3-6.4-5c19,14.8,37.3,30,58.7,41.1c16,8.4,33.4,15.6,51.2,19c22.8,4.3,47.8,5.1,69.8-3.5c5.1-2,11.4-4.2,16-7.5
					c6.9-4.9,12.2-10.6,14.6-18.9c2.1-7.6,1.2-17.6-3.2-24.4c-8.7-13.4-28.9-21.5-43.4-11.4c-2.3,1.6-4.9,2.8-7.4,3.9
					c2.5-1.1,5.1-2.2,7.6-3.2c-6.3,2.6-13,4.3-19.8,5.2c2.8-0.4,5.6-0.7,8.4-1.2c-9,1.2-18,1-27-0.1c2.8,0.4,5.6,0.7,8.4,1.2
					c-12.6-1.7-24.8-5.3-36.6-10.2c2.5,1.1,5.1,2.2,7.6,3.2c-18.6-7.9-35.7-18.6-51.6-31c2.2,1.6,4.3,3.3,6.4,5
					c-12.3-9.6-24.1-19.7-37.4-28.1c-12.1-7.6-25-13.6-38.2-19c-20.8-8.7-42.6-14.2-64.9-17.4c-39.6-5.5-78.7-4.8-118.3,1.4
					c-6.7,1.1-13.5,2.2-20.1,3.9c-16.1,4.1-27.3,22.9-22.1,39C1047.8,683,1064.2,692.9,1081.4,688.5L1081.4,688.5z"/>
			</g>
		</g>
		<g>
			<g>
				<path class="st0" d="M1447.4,481.2c-0.5,1.4-1.1,2.9-1.6,4.3c1.1-2.5,2.2-5.1,3.2-7.6c-4.1,9.6-9.6,18.5-15.9,26.7
					c1.6-2.2,3.3-4.3,5-6.4c-7.4,9.6-16,18.1-25.6,25.5c2.2-1.6,4.3-3.3,6.4-5c-10.4,8-21.7,14.4-33.8,19.6c2.5-1.1,5.1-2.2,7.6-3.2
					c-15.3,6.4-31.4,10.4-47.9,12.7c2.8-0.4,5.6-0.7,8.4-1.2c-17.1,2.2-34.8,1.2-51.5,6.2c-14.5,4.3-28.3,11.3-40.4,20.4
					c-21.5,16.1-39,35.8-53.6,58.2c-2.5,4-5.1,8-7.2,12.1c-7.7,14.7-4.3,35.1,11.4,43.4c14.6,7.7,35.1,4.3,43.4-11.4
					c4.9-9.2,11-18,17.3-26.2c-1.6,2.2-3.3,4.3-5,6.4c9.1-11.9,19.6-22.8,31.4-32c-2.2,1.6-4.3,3.3-6.4,5
					c7.6-5.8,15.7-10.8,24.6-14.6c-2.5,1.1-5.1,2.2-7.6,3.2c6.7-2.7,13.6-4.7,20.7-5.7c-2.8,0.4-5.6,0.7-8.4,1.2
					c5.2-0.6,10.4-0.6,15.7-1c8.1-0.5,16.1-1.5,24.2-2.6c10.4-1.4,20.7-3.5,30.8-6.5c18.5-5.5,36.8-13.7,52.8-24.7
					c22.5-15.7,42.4-36,55.2-60.6c3.2-6.1,6.2-12.5,8.2-19c5.1-15.7-5.9-35.3-22.1-39C1469,455.1,1452.7,464.3,1447.4,481.2
					L1447.4,481.2z"/>
			</g>
		</g>
		<g>
			<g>
				<path class="st0" d="M1221,658.6c-3.3,17.1-5.2,34.7-6.3,52.1c-2,32-0.5,65.3,8.1,96.3c2.8,10.3,6.8,20.4,11.3,30
					c3.5,7.5,8.6,14.2,11.9,21.8c-1.1-2.5-2.2-5.1-3.2-7.6c10,24.7,14.1,52.3,17.6,78.7c-0.4-2.8-0.7-5.6-1.2-8.4
					c5.1,37.7,8.1,77,3.2,114.9c0.4-2.8,0.7-5.6,1.2-8.4c-0.3,1.7-0.5,3.5-0.8,5.2c-1.4,8.7-1.4,16.6,3.2,24.4
					c3.8,6.6,11.4,12.9,18.9,14.6c8.1,1.8,17.2,1.4,24.4-3.2c6.5-4.2,13.2-11,14.6-18.9c5.4-33.5,5-67.4,1.9-101.1
					c-3-32.5-7.3-65.4-16-96.9c-2.9-10.4-6.4-21.1-11.6-30.6c-3.7-6.8-7.9-12.9-11-20.1c1.1,2.5,2.2,5.1,3.2,7.6
					c-6-14.2-9.5-29.2-11.6-44.4c0.4,2.8,0.7,5.6,1.2,8.4c-4.1-30.1-3-60.9,1.1-91c-0.4,2.8-0.7,5.6-1.2,8.4c0.6-5,1.4-10,2.4-14.9
					c1.6-8.4,1.3-16.8-3.2-24.4c-3.8-6.6-11.4-12.9-18.9-14.6C1244.3,632.9,1224.5,641.2,1221,658.6L1221,658.6z"/>
			</g>
		</g>
		<g>
			<g>
				<path class="st0" d="M1277.3,886.1c11-0.3,22.2,0.8,33.1,2.3c-2.8-0.4-5.6-0.7-8.4-1.2c19.6,2.7,39.1,7.5,57.4,15.2
					c-2.5-1.1-5.1-2.2-7.6-3.2c11.8,5.1,22.9,11.3,33.1,19c-2.2-1.6-4.3-3.3-6.4-5c8.2,6.4,15.6,13.7,22,21.9
					c-1.6-2.2-3.3-4.3-5-6.4c11,14.2,20.1,29.6,27.1,46.1c-1.1-2.5-2.2-5.1-3.2-7.6c6,14.3,10.2,29.2,12.3,44.6
					c-0.4-2.8-0.7-5.6-1.2-8.4c1,7.8,1.9,15.9,1.1,23.7c-0.7,7.6,4.1,17.2,9.3,22.4c5.5,5.5,14.5,9.6,22.4,9.3
					c8.2-0.4,16.7-3.1,22.4-9.3c6-6.5,8.4-13.6,9.3-22.4c1.4-13.9-1.3-28.9-4-42.4c-6.2-30.5-20.1-60.3-38.7-85.2
					c-5.5-7.4-11.1-14.8-17.6-21.3c-5.9-5.8-12.5-11-19.2-15.9c-9.5-7.1-19.9-12.9-30.8-17.6c-12.5-5.4-25-10.1-38.2-13.5
					c-11.9-3-24-4.9-36.2-6.5c-11-1.4-22.1-2.5-33.1-2.3c-16.6,0.5-32.5,14.2-31.7,31.7C1246.4,871.1,1259.6,886.5,1277.3,886.1
					L1277.3,886.1z"/>
			</g>
		</g>
		<g>
			<g>
				<path class="st0" d="M1005.4,1030c-20.8,2.2-41.5,4.9-62.3,7.8c-34.8,4.8-69.8,10.3-104.1,18.5c-28.1,6.7-57.8,14.6-79,35.3
					c-20.3,19.9-38.1,42.5-57.2,63.5c-28.3,31.1-58,61.2-90.6,87.9c-4.3,3.5-8.7,7-13.1,10.4c2.2-1.6,4.3-3.3,6.4-5
					c-27.6,21.3-57.3,40-89.4,53.6c2.5-1.1,5.1-2.2,7.6-3.2c-12.1,5.1-24.4,9.3-37.1,12.7c-16,4.3-27.3,22.8-22.1,39
					c5.3,16.5,21.8,26.7,39,22.1c62.7-16.7,117.8-53.7,166.4-95.6c39.1-33.9,73.8-72.1,107.8-110.9c10.6-12.1,21-25.7,33.8-35.7
					c-2.2,1.6-4.3,3.3-6.4,5c4.4-3.3,9.4-5.8,14.6-8c-2.5,1.1-5.1,2.2-7.6,3.2c17.6-7.4,36.5-11.9,55.1-15.9
					c21.9-4.8,44-8.6,66.2-12c11.6-1.8,23.2-3.4,34.8-5c-2.8,0.4-5.6,0.7-8.4,1.2c15.3-2.1,30.6-4,45.9-5.6c8.6-0.9,16-2.9,22.4-9.3
					c5.5-5.5,9.6-14.5,9.3-22.4c-0.4-8.2-3.1-16.7-9.3-22.4C1022,1033.9,1013.7,1029.2,1005.4,1030L1005.4,1030z"/>
			</g>
		</g>
		<g>
			<g>
				<path class="st0" d="M473.2,1129.5L473.2,1129.5c-2.7-0.4-5.5-0.7-8.3-1.2c23.4,3.2,46.4,9.3,68.8,16.6c11.5,3.7,22.9,8,34,12.7
					c-2.5-1.1-5.1-2.2-7.6-3.2c26.1,11,51.1,24.7,73.6,42c-2.2-1.6-4.3-3.3-6.4-5c15.1,11.8,28.9,25.1,40.5,40.2
					c-1.6-2.2-3.3-4.3-5-6.4c0.7,1,1.4,1.9,2.2,2.9c5.2,6.9,10.3,12.2,18.9,14.6c7.6,2.1,17.6,1.2,24.4-3.2
					c6.8-4.3,12.8-10.9,14.6-18.9c1.8-7.8,1.8-17.7-3.2-24.4c-8.3-11.1-17.1-21.9-27.2-31.6c-9.9-9.6-20.6-18.2-31.7-26.3
					c-17.7-13.1-37-24.1-57.1-33.3c-33-15.2-67.6-26.9-103.2-34.3c-9.1-1.9-18.4-3.3-27.6-4.5c-7.4-1-17.4,4.3-22.4,9.3
					c-5.5,5.5-9.6,14.5-9.3,22.4c0.4,8.2,3.1,16.7,9.3,22.4c2.2,1.6,4.3,3.3,6.4,5C462.2,1128.1,467.5,1129.5,473.2,1129.5
					L473.2,1129.5z"/>
			</g>
		</g>
		<g>
			<g>
				<path class="st0" d="M574.4,880.4c5.2,6.9,8.9,15.1,12.2,23c-1.1-2.5-2.2-5.1-3.2-7.6c9.1,21.5,14.3,44.4,17.4,67.3
					c-0.4-2.8-0.7-5.6-1.2-8.4c5.2,39.6,3.7,79.8-1.5,119.4c0.4-2.8,0.7-5.6,1.2-8.4c-2.2,15.8-4.9,31.7-8.1,47.3
					c-1.7,8.3-1.2,16.8,3.2,24.4c3.8,6.6,11.4,12.9,18.9,14.6c15.8,3.6,35.4-4.8,39-22.1c11.9-56.8,18.4-116.2,11-174.1
					c-4.3-33.2-11.7-65.7-27.2-95.7c-2.1-4-4.2-8.1-6.9-11.6c-5.2-6.9-10.3-12.2-18.9-14.6c-7.6-2.1-17.6-1.2-24.4,3.2
					c-6.8,4.3-12.8,10.9-14.6,18.9C569.4,863.6,569.3,873.7,574.4,880.4L574.4,880.4z"/>
			</g>
		</g>
		<g>
			<g>
				<path class="st0" d="M719.7,1165.4c-2.5,11.6-0.6,23.6,0.7,35.3c2.3,19.6,5.1,39.1,8.6,58.5c5.4,29.7,11.3,62.8,32.9,85.4
					c5.8,6.1,12.4,11.4,17.6,18.1c-1.6-2.2-3.3-4.3-5-6.4c3.1,4,5.6,8.3,7.6,12.9c-1.1-2.5-2.2-5.1-3.2-7.6
					c2.4,5.6,3.8,11.6,4.6,17.6c-0.4-2.8-0.7-5.6-1.2-8.4c1.7,12.7,0.9,25.5-0.7,38.2c0.4-2.8,0.7-5.6,1.2-8.4
					c-2.9,21-8.1,41.5-14.3,61.8c-4.8,15.8,5.7,35.2,22.1,39c17,3.9,33.9-5.2,39-22.1c6.1-20.3,11.4-40.8,14.3-61.8
					c2.4-17.2,3.6-33.6,1.4-50.9c-3-22.3-12.6-41.5-28.7-57.3c-4.8-4.7-9.9-9.1-14-14.4c1.6,2.2,3.3,4.3,5,6.4
					c-2.4-3.3-4.3-6.8-6-10.6c1.1,2.5,2.2,5.1,3.2,7.6c-5.7-13.6-9-28.2-11.9-42.6c-3.4-16.7-6.2-33.6-8.5-50.5
					c0.4,2.8,0.7,5.6,1.2,8.4c-1.2-8.5-2.2-17.1-2.9-25.7c-0.4-4.4-1.1-9.2-0.6-13.7c-0.4,2.8-0.7,5.6-1.2,8.4
					c0-0.2,0.1-0.3,0.1-0.5c1.8-8.3,1.2-16.9-3.2-24.4c-3.8-6.6-11.4-12.9-18.9-14.6C742.6,1139.6,723.4,1148.1,719.7,1165.4
					L719.7,1165.4z"/>
			</g>
		</g>
		<g>
			<g>
				<path class="st0" d="M777.3,1281.6c-10-0.3-20.7,2-30.3,4.8c-24.7,7.1-46.4,20.3-66.5,35.9c-14,11-26.4,23.6-37.7,37.4
					c-5.5,6.6-9.3,13.5-9.3,22.4c0,7.8,3.4,17,9.3,22.4c6.1,5.5,13.9,9.7,22.4,9.3c8-0.4,17.1-2.9,22.4-9.3
					c11.6-14,24.4-27,38.8-38.2c-2.2,1.6-4.3,3.3-6.4,5c11.3-8.6,23.4-16.1,36.5-21.7c-2.5,1.1-5.1,2.2-7.6,3.2
					c9.4-4,19.2-7.1,29.3-8.4c-2.8,0.4-5.6,0.7-8.4,1.2c2.5-0.4,5.1-0.6,7.6-0.5c16.6,0.5,32.4-14.9,31.7-31.7
					C808.2,1295.7,795.1,1282.1,777.3,1281.6L777.3,1281.6z"/>
			</g>
		</g>
	</g>
</g>
<g id="Layer_2" class="st1">
</g>
</svg>
