<?xml version="1.0" encoding="utf-8"?>
<!-- Generator: Adobe Illustrator 21.0.0, SVG Export Plug-In . SVG Version: 6.00 Build 0)  -->
<svg version="1.1" xmlns="http://www.w3.org/2000/svg" xmlns:xlink="http://www.w3.org/1999/xlink" x="0px" y="0px" width="2000px"
	 height="2000px" viewBox="0 0 2000 2000" style="enable-background:new 0 0 2000 2000;" xml:space="preserve">
<style type="text/css">
	.st0{fill:none;}
	.st1{fill:#36B9DB;}
	.st2{display:none;}
</style>
<g id="Layer_1">
	<rect x="528.5" y="412" class="st0" width="990.9" height="1176.2"/>
	<g>
		<path class="st1" d="M669.1,817.4c24,5.7,47.4,13.4,70,23.4c7.2,2.9,14.2,5.7,21.2,8.4c13.3,5,26.4,10.4,39.9,15.7
			c27,11,55,22.3,82.5,30.4c38.3,9.6,77.8,14.1,117.3,13.1c39.6,0.9,79-3.4,117.3-13.1c27.5-8.1,55.5-19.4,82.5-30.4
			c13.3-5.3,26.6-10.7,39.9-15.7c7-2.6,14.1-5.5,21.2-8.4c22.6-9.9,46-17.7,70-23.4c-83.4-164.1-81.7-293-76.4-343.5H745.4
			C750.9,524.4,752.5,653.3,669.1,817.4 M962.3,719.5c10.4,0,18.9,8.4,18.9,18.9c0,10.4,8.4,18.9,18.9,18.9s18.9-8.4,18.9-18.9
			c0-10.4,8.4-18.9,18.9-18.9c10.4,0,18.9,8.4,18.9,18.9c0,31.3-25.4,56.7-56.7,56.7s-56.7-25.4-56.7-56.7
			C943.3,727.9,951.7,719.5,962.3,719.5"/>
		<path class="st1" d="M1350,852.8c-25.8,4.4-51,12.1-74.9,22.8c-7.5,3.1-14.8,6-22,8.7c-13,4.9-26,10.2-39.1,15.4
			c-27.8,11.3-56.7,22.9-86,31.6c-41.7,10.7-84.8,15.7-127.9,14.7h-0.3c-43.1,1.1-86.2-4-127.9-14.7c-29.3-8.7-58-20.3-86-31.6
			c-13-5.2-26.1-10.5-39.1-15.4c-7.3-2.7-14.7-5.7-22-8.7c-23.8-10.7-49-18.5-74.9-22.8c-1.5,2.7-2.9,5.5-4.6,8.2
			c-23.4,43.2-37,91.2-39.6,140.2c58.2-3.2,210.2-6.3,290.5,41.9c21.1,12.5,40,23.4,56.5,32.2c3.5,1.8,7,3.7,10.1,5.2l3.2,1.5
			c21.4,10.7,46.4,10.7,67.7,0c2.1-1.1,3.8-1.8,5.7-2.7l4.4-2.3l1.4-0.8c16.2-8.6,35.7-19.6,58.5-33.1
			c78.2-46.9,223.3-45.5,290.4-42c-2.6-49-16.2-97-39.6-140.2C1353,858.3,1351.6,855.7,1350,852.8"/>
		<path class="st1" d="M925.9,1103.8c-14.8-8.1-30.9-17.3-48.9-28.1c-64-38.3-194.6-41.2-273-36.4
			c-2.9,199.3,90.9,438.3,113.2,492.5h264v-264.6c0.2-0.6,0.2-1.1,0.3-1.5c-13.7-54.8-32.2-108.5-55.1-160.2
			C926.1,1104.9,926.1,1104.2,925.9,1103.8"/>
		<path class="st1" d="M1282.8,1531.8c22.5-54.2,116.1-293.3,113.2-492.5c-55.8-3.1-201.5-6.4-273,36.4
			c-18.5,11-34.8,20.5-48.9,28.1c-0.2,0.6-0.2,1.1-0.5,1.7c-22.9,51.8-41.4,105.4-55.1,160.2c0.2,0.5,0.3,1.1,0.3,1.5v264.6H1282.8z
			"/>
		<rect x="433.1" y="473.7" class="st0" width="1133.6" height="1058.3"/>
		<path class="st1" d="M1024.1,1125.5c-15.9,3.5-32.4,3.5-48.4,0c6.9,17.3,15.3,40.5,24.1,68.4
			C1008.9,1165.8,1017.4,1142.6,1024.1,1125.5"/>
		<path class="st1" d="M527.7,681.6c0,7.3,4.3,14.1,11,17.3c2.4,1.1,5.2,1.7,7.9,1.7c4.4,0,8.7-1.5,12.1-4.3L672,601.8
			c4.3-3.5,6.9-8.9,6.9-14.5s-2.4-11-6.9-14.5l-113.3-94.4c-5.7-4.7-13.4-5.7-20.2-2.6c-6.6,3.1-10.8,9.8-10.8,17.1v37.7h-75.6
			c-10.4,0-18.9,8.4-18.9,18.9v75.6c0,10.4,8.4,18.9,18.9,18.9h75.6L527.7,681.6L527.7,681.6z"/>
		<path class="st1" d="M1547.9,530.5h-75.6v-37.7c0-7.3-4.3-14.1-10.8-17.1c-6.6-3.1-14.5-2.1-20.2,2.6L1328,572.7
			c-4.3,3.5-6.9,8.9-6.9,14.5s2.4,11,6.9,14.5l113.3,94.4c3.4,2.7,7.6,4.3,12.1,4.3c2.7,0,5.5-0.6,7.9-1.7c6.7-3.1,11-9.8,11-17.3
			v-37.7h75.6c10.4,0,18.9-8.4,18.9-18.9v-75.6C1566.9,538.9,1558.3,530.5,1547.9,530.5"/>
		<rect x="433.1" y="473.7" class="st0" width="1133.6" height="1058.3"/>
	</g>
</g>
<g id="Layer_2" class="st2">
</g>
</svg>
