<?xml version="1.0" encoding="utf-8"?>
<!-- Generator: Adobe Illustrator 21.0.0, SVG Export Plug-In . SVG Version: 6.00 Build 0)  -->
<svg version="1.1" id="Layer_1" xmlns="http://www.w3.org/2000/svg" xmlns:xlink="http://www.w3.org/1999/xlink" x="0px" y="0px"
	 width="2000px" height="2000px" viewBox="0 0 2000 2000" style="enable-background:new 0 0 2000 2000;" xml:space="preserve">
<style type="text/css">
	.st0{fill:#38B9DB;}
	.st1{fill:none;stroke:#38B9DB;stroke-width:19.0698;stroke-miterlimit:10;}
</style>
<g>
	<circle class="st0" cx="1041.5" cy="528.5" r="92.7"/>
	<path class="st0" d="M824.3,605.4c0,0-168.6,89.2-154.9,409.9c0,17.6,16.6,99.1,111.8,100.1c95.2,1,117.8-93.1,116.7-107.9
		c-1-14.8-1-159,36.3-185.4c1.8,10.9,7.6,32.8,11.3,47c2.3,8.4,7,15.8,13.7,21.3l124.3,103c1.2,1,2.3,2.1,3.3,3.1l11.3,11.3
		c18.7,18.7,49,18.9,67.9,0.6l0,0c20.5-19.7,19.5-52.9-1.8-71.6l-118.4-102.8c-8.2-7.2-13.9-16.6-16.6-27.1l-35.3-142.8
		C993.9,664.1,956.6,553.3,824.3,605.4z"/>
	<path class="st0" d="M679.4,1054.1L663,1249.8c-1.4,16.4-5.3,32.6-11.5,48l-75.3,187.3c-10.1,24.8,1.4,53.3,26.1,64.2l0,0
		c25.6,11.5,55.8-0.6,66.5-26.7l89.9-218.9c2.9-7.2,4.9-14.8,5.7-22.6l17-165.8C781.2,1115.4,680.3,1070.1,679.4,1054.1z"/>
	<path class="st0" d="M873.9,1069.4l87.4,191.8c2.9,6.2,4.7,12.7,5.5,19.3l28.7,217c3.7,27.9-15.6,53.7-43.3,58.1l0,0
		c-28.9,4.5-55.8-15.6-59.7-44.5l-25.2-188.9c-1.6-11.9-4.9-23.4-9.6-34.3l-80.2-179.1C777.1,1109,824.3,1101.6,873.9,1069.4z"/>
	<path class="st1" d="M1067.6,1495.9l18.3-473.3c1.4-34.7,31-62.6,67.7-63.8l126.8-4.1c38.2-1.2,70.4,26.7,72.4,62.8l25,466.1"/>
	<circle class="st0" cx="1377.3" cy="1507.8" r="50.1"/>
	<rect x="1090.1" y="1140" class="st0" width="270" height="19.5"/>
	<g>
		<polygon class="st0" points="1035.2,1557.9 1046.8,1482.4 1088.1,1482.4 1099.8,1557.9 		"/>
	</g>
</g>
</svg>
