<?xml version="1.0" encoding="utf-8"?>
<!-- Generator: Adobe Illustrator 21.0.0, SVG Export Plug-In . SVG Version: 6.00 Build 0)  -->
<svg version="1.1" xmlns="http://www.w3.org/2000/svg" xmlns:xlink="http://www.w3.org/1999/xlink" x="0px" y="0px" width="2000px"
	 height="2000px" viewBox="0 0 2000 2000" style="enable-background:new 0 0 2000 2000;" xml:space="preserve">
<style type="text/css">
	.st0{fill:none;}
	.st1{fill:#38B9DB;}
	.st2{display:none;}
</style>
<g id="Layer_1">
	<rect x="445" y="495.8" class="st0" width="1110.9" height="1008.5"/>
	<g>
		<path class="st1" d="M451.9,795.4c-5.4,8.9-2.6,20.3,6.3,25.7c8.9,5.4,20.3,2.6,25.7-6.3c4.2-7,9.1-14,14.9-21
			c4.9-6.1,5.6-14.7,1.4-21.5c-0.5-0.7-38.7-63.7-22.2-118.2c7.7-26.1,27.5-46.4,58.5-60.9c5.6-2.6,9.3-7.7,10.5-13.5
			c0.2-0.7,13.3-70,63.2-97.5c28.2-15.4,63.7-14.7,105.7,2.3c6.8,2.8,14.5,1.2,19.8-3.7c48.3-45.9,117.1-34.8,149.7,4.7
			c5.6,6.8,15.4,8.6,23.3,4.4c42.4-23.1,82.6-31,115.9-23.1c24.7,6.1,37.5,18.9,37.5,18.9c7.5,7.9,20.3,7.7,27.5-0.5
			c21.2-24.3,47.6-41.5,79.5-41.5c51.8,0,95.2,45,95.6,45.2c6.1,6.3,15.6,7.7,23.1,3.3c1.2-0.7,105.9-61.3,159.1-1.2
			c59.9,88.9,17.7,172.6,16.1,176.1c-3.5,6.8-2.6,15.2,2.6,21c16.3,18.4,28.2,38.7,35.7,59.9c3.3,9.8,14,14.9,23.8,11.4
			c9.8-3.3,14.9-14,11.7-23.8c-7.7-22.4-19.6-43.6-35.2-63.2c12.1-30.6,36.2-115.2-24-203.6c-0.5-0.5-0.9-1.2-1.2-1.6
			c-48.5-56.2-128-46.4-194.3-14c-65.3-56.7-144.4-66.7-207.6-5.6c-25.7-16.8-83-39.9-170.3,2.8c-47.3-44.1-126.2-52.2-184.7-4.7
			c-48.5-17.3-91-16.1-126.9,3.7c-53.2,29.2-73.7,90.3-79.8,114c-85.8,44.8-93.5,132.2-50.4,217.1
			C458.2,785.4,454.9,790.3,451.9,795.4L451.9,795.4z"/>
		<path class="st1" d="M1527.7,829.9c-10-2.3-20.1,4-22.4,14c-8.9,39.6-19.8,42.2-15.6,55.5c41.3,128.5-65.1,199.6-69.5,202.4
			c-6.1,4-9.3,11-8.4,18.2c7.2,53.2-1.9,95.4-27.1,125.5c-40.1,47.8-109.2,50.6-109.9,50.6c-7.5,0.2-14.2,4.9-16.8,12.1
			c-16.1,42.4-39.4,68.8-69.5,78.6c-53.2,17.5-112.9-20.5-113.3-21c-13.5-8.9-31,2.3-28.7,18.4c0.2,1.2,14.5,104.3-45.7,178.2h-22.6
			c-55-126.9-102.6-341,32.2-360.8c34.1-4.9,72.5,6.1,114.7,33.1c10.5,6.8,16.6,13.3,27.5,9.8c29.4-9.6-2.8-79.1,108.9-104.5
			c10.3-2.3,16.6-12.6,14-22.6c-18-72.1-5.6-121,61.3-150.7c8.4-3.7,13.3-13.3,10.3-22.9c-16.3-52-13.1-108.5,15.6-154.4
			c5.8-9.6,2.1-22.2-7.9-26.8c-34.1-15.9-51.3-45.2-56.9-81.9c-4.9-31.7,0.5-59.5,0.5-59.7c3.7-17.7-17.5-29.6-30.8-17.5
			c-53.4,49-139.5,39.9-207.1,13.5c-11.4-4.4-20.1-10.5-30.3-2.3c-86.1,66.2-171.7,14.9-175.2,12.8c-11.7-7.5-16.6,0.7-41.3,6.5
			c-70,16.6-121.5-27.8-123.8-29.9c-13.3-11.9-34.1,0-30.8,17.5c12.8,68.1-40.3,90-40.8,90.5c-10.7,4.4-14.9,17.5-8.6,27.3
			c64.1,102.2,13.1,169.6,11,172.4c-8.6,10.7-3.3,26.6,10.3,29.9c99.4,23.8,111.5,164,77.2,203.6c-16.8,19.1-11.2,54.6-7.7,81.9
			c3.3,26.1,7.7,62-3.3,72.1c-12.4,11.4-28,2.3-32.4-0.9c-17.3-11.7-9.6-54.6-4.4-82.8c4.9-26.8,7.9-44.5-3.7-55.5
			c-5.8-5.4-13.8-7.5-21.9-5.4c-109.2,25.9-136.9-115.7-101.5-144.6c9.8-8.2,8.9-23.6-1.9-30.3c-0.2-0.2-29.6-18.9-49.2-50.8
			c-5.4-8.9-16.8-11.7-25.7-6.3c-8.9,5.4-11.7,16.8-6.3,25.7c13.8,22.6,31.5,39.9,44.3,50.4c-39.4,66.5,9.8,210.4,131.5,195.2
			c-5.8,38-24.5,106.6,17.5,135.3c26.6,18.2,57.6,17,78.8-2.6c32-29.6,14.2-91.2,11.9-134.8c47.1,37.3,104.7,58.3,164.7,59.9
			c-46.9,129.9,46.2,328.2,50.4,337c3,6.5,9.6,10.7,16.8,10.7h42.9c5.4,0,10.3-2.3,14-6.3c53.9-60.2,62.5-137.1,62.3-180.8
			c86.5,36.2,163.5,11.9,203.1-80.5c25.7-3,84.7-15.4,124.5-62.5c30.8-36.2,43.1-84.7,37.1-143.7c67.9-53.2,104.3-137.8,77.4-230.9
			c3.7-8.4,9.8-23.6,14.2-43.1C1544.1,842.3,1537.8,832.2,1527.7,829.9L1527.7,829.9z M927.9,686.5c-13.8,3.5-91.4,26.1-93.3,85.6
			c-3.5,115.2-70.7,150.2-160.7,111.3c2.8-11.2,4.9-24.3,5.4-38.5c21.2,10.5,59.7,24.3,85.1,10.5c20.5-11.2,31.5-39.4,32.9-84.4
			c1.4-43.1,28-76.5,65.5-98C892.4,684.8,923.7,686,927.9,686.5z M692.8,680.2c0.2,0,4-12.6,5.1-25.2c10,5.1,20.3,9.6,30.3,12.6
			c14.9,33.6,26.1,77.2,14.5,122c-2.3,8.4-9.8,13.8-18,13.8c-12.1,0-21.2-11.7-18-23.6C715.9,744.3,705.6,707.9,692.8,680.2
			L692.8,680.2z M787.5,1021.2c-3.7-11.9-11-23.6-18.4-35.5c-4-6.1-11.9-16.3-22.4-18.4c-3.7-0.7-10.3,2.6-14.5,6.1
			c-6.5-10.3-14.2-20.3-23.3-28.9c26.6-22.2,57.4-17.7,80.9,7.7c6.1-17,15.9-32,28.2-41c21.5-16.1,49.9-23.8,80.9-22.6
			c-28.7-65.1-14-128.7,56.2-138.3c56-7.7,124.8-30.8,154.6-78.8c12.4,2.3,25.7,4.2,39.4,5.1c-6.3,14.7-18.7,32.7-38,49.4
			c-45.5,39.6-107.3,55.3-150.9,61.1c-18,2.6-29.2,9.6-34.3,21.9c-7.5,18.2-2.8,54.3,20.3,87.7c22.9,7.5,36.9,15.4,132.2,63.7
			c9.1,4.7,12.8,15.9,8.2,25c-4.7,9.1-15.9,12.8-25,8.2c-100.5-50.8-107.5-55-124.5-60.6c-31-10.5-70.2-11.7-96.6,7.9
			c-14.9,11-24.3,43.8-18.2,63.9c0.5,1.9,0.7,3.7,0.7,5.6c18.4,58.5,59,85.1,124.3,81.6c10.3-0.5,19.1,7.2,19.6,17.5
			c0.5,10.3-7.2,19.1-17.5,19.6C867.2,1133.8,811,1096.5,787.5,1021.2L787.5,1021.2z M1315.7,800.5c-16.6,16.8-40.3,31-70.7,42
			c-6.3,2.3-7.9,10-3.3,14.9c19.4,20.5,41.3,51.8,49,93.1c-23.6,15.9-33.1,31.3-34.5,32.7c0.5-45.7-22.2-79.3-41.5-100.1
			c-23.1-24.5-13.5-64.4,18-75.6c22.2-7.9,49.7-21.2,63.9-41.5c7.7,8.4,16.3,15.9,25.2,21.7C1317.8,795.2,1314.3,804,1315.7,800.5z
			 M1104.4,1181.6c-20.3-9.1-34.5-12.1-35.5-12.4c2.8-5.1,6.1-14.2,4.2-26.4c-7.2-47.6-78.8-87.2-122.7-107.1
			c-9.3-4.2-13.5-15.4-9.3-24.7c4.2-9.3,15.4-13.5,24.7-9.3c59.2,26.8,100.8,56.2,123.6,87.9c24.5-13.3,48.5-28.2,66.5-49
			c17.3-19.8,32.2-51.8,22.9-81.9c-8.6-27.8-42.2-66.9-92.4-83.7c-35.7-12.1-38.2-61.1-5.1-77.7c76.7-38.5,108.5-76,100.5-120.8
			c12.4-0.7,24.7-2.6,36.9-5.6c15.6,91.4-85.8,142.3-120.8,159.8c-4,1.9-3.7,7.5,0.5,8.9c61.3,20.8,103.8,69,115.9,108.2
			c11.4,37.5-0.2,82.3-30.6,117.3c-21.9,25.2-49.7,42.7-77.4,57.6C1112.6,1142.2,1112.8,1162.7,1104.4,1181.6z"/>
		<path class="st1" d="M459.8,858.4c-7.2-7.2-19.1-7.2-26.4,0s-7.5,18.9,0,26.4c7.2,7.2,18.9,7.5,26.4,0
			C467,877.7,467.2,866.1,459.8,858.4z"/>
	</g>
</g>
<g id="Layer_2" class="st2">
</g>
</svg>
