<?xml version="1.0" encoding="utf-8"?>
<!-- Generator: Adobe Illustrator 21.0.0, SVG Export Plug-In . SVG Version: 6.00 Build 0)  -->
<svg version="1.1" id="Layer_1" xmlns="http://www.w3.org/2000/svg" xmlns:xlink="http://www.w3.org/1999/xlink" x="0px" y="0px"
	 width="2000px" height="2000px" viewBox="0 0 2000 2000" style="enable-background:new 0 0 2000 2000;" xml:space="preserve">
<style type="text/css">
	.st0{fill:#38B9DB;stroke:#38B9DB;stroke-width:14;stroke-miterlimit:10;}
	.st1{fill:#38B9DB;}
</style>
<g id="Layer_1_copy_8">
	<title>038 - Mind Map</title>
	<desc>Created with Sketch.</desc>
	<g id="Layer_1_3_">
		<g>
			<path class="st0" d="M668.1,619.6h62.3c56.4,0,102.3-45.9,102.3-102.3S786.8,415,730.4,415c-56.4,0-102.3,45.9-102.3,102.3v45
				c-83,36.6-128,103.9-127.3,191.7c1.4,169.2,175.3,381.6,332,410.2V1272c0,169.2,137.8,307,307,307s307-137.8,307-307v-39.8
				c77.8-15.9,136.4-84.8,136.4-167.1c0-94.1-76.4-170.5-170.5-170.5s-170.5,76.4-170.5,170.5c0,82.3,58.7,151.2,136.4,167.1v39.8
				c0,131.7-107.1,238.8-238.8,238.8S901,1403.7,901,1272v-107.8c146.4-26.6,301.5-210.1,327.7-364.5c18.4-108.7-26.4-194-123-237.2
				V517c0-56.4-45.9-102.3-102.3-102.3S901.1,460.6,901.1,517s45.9,102.3,102.3,102.3h61.2c78.2,29.1,110.7,86,96.9,169
				c-25.7,152.4-189.2,311.1-294.5,311.1c-121.7,0-296.5-197.6-297.9-345.9C568.5,689.5,601.7,644.4,668.1,619.6z M696.3,517.3
				c0-18.9,15.2-34.1,34.1-34.1c18.9,0,34.1,15.2,34.1,34.1c0,18.9-15.2,34.1-34.1,34.1h-34.1V517.3z M1310.3,1065.3
				c0-56.4,45.9-102.3,102.3-102.3s102.3,45.9,102.3,102.3c0,56.4-45.9,102.3-102.3,102.3S1310.3,1121.7,1310.3,1065.3z
				 M1037.4,551.4h-34.1c-18.9,0-34.1-15.2-34.1-34.1c0-18.9,15.2-34.1,34.1-34.1s34.1,15.2,34.1,34.1V551.4z"/>
			<path class="st0" d="M1378.5,1031.2h68.2v68.2h-68.2V1031.2z"/>
		</g>
	</g>
	<circle class="st1" cx="729.1" cy="521.9" r="56"/>
	<circle class="st1" cx="1003.1" cy="521.9" r="56"/>
	<circle class="st1" cx="1412.6" cy="1065.3" r="71.1"/>
</g>
</svg>
