<svg xmlns="http://www.w3.org/2000/svg" width="64" height="64" viewBox="0 0 64 64">
    <defs>
        <clipPath id="a7xvdnylia">
            <path data-name="Rectangle 18791" transform="translate(1249 1569)" style="fill:#fff;stroke:#707070" d="M0 0h64v64H0z"/>
        </clipPath>
    </defs>
    <g data-name="Symptoms Checker Icon" transform="translate(-1249 -1569)" style="clip-path:url(#a7xvdnylia)">
        <path data-name="Path 15431" d="M-302.657-.036h.106a.981.981 0 0 1 .77.231c.8 1.208.719 3.832.724 5.21V6.294a24.368 24.368 0 0 1-.153 3.131l-.024.2a27.946 27.946 0 0 1-2.563 8.738l-.074.154a25.068 25.068 0 0 1-1.2 2.2l-.073.121a27.688 27.688 0 0 1-1.15 1.714l-.085.119c-.31.43-.626.85-.973 1.25a9.96 9.96 0 0 0-.327.4c-.225.276-.466.536-.71.8-.1.113-.207.228-.31.342-.23.251-.468.494-.709.735l-.107.107c-.194.193-.392.379-.6.557-.114.1-.224.2-.335.3-.208.19-.422.372-.641.549q-.158.127-.314.257c-.462.382-.939.737-1.429 1.082l-.1.068a30.711 30.711 0 0 1-3.08 1.882l-.158.085c-.83.446-.83.446-1.156.385a.619.619 0 0 1-.25-.4 2.843 2.843 0 0 1-.018-.423v-.11a1 1 0 0 1 .227-.718 2.994 2.994 0 0 1 .728-.455 23.586 23.586 0 0 0 3.816-2.482l.121-.094q.721-.571 1.394-1.2c.114-.105.23-.208.347-.31.245-.22.478-.452.711-.685l.115-.115c.227-.228.443-.462.652-.706l.206-.226c.223-.247.433-.5.641-.761l.131-.16a25.958 25.958 0 0 0 2.645-4.027l.065-.119a25.377 25.377 0 0 0 2.866-9.272l.012-.1a19.01 19.01 0 0 0 .124-2.045v-.878a22.486 22.486 0 0 0-.153-3.059l-.013-.1c-.1-.727-.21-1.453-.359-2.172a1.415 1.415 0 0 1 0-.647c.195-.242.363-.242.663-.242z" transform="translate(1608.055 1597.503)" style="fill:#004f6c"/>
        <path data-name="Path 15432" d="M-32.1-.061h.107a.719.719 0 0 1 .531.156c.216.324.055.764-.016 1.123-.111.57-.206 1.141-.278 1.717l-.021.167a25.186 25.186 0 0 0-.17 3.106v.169a24.265 24.265 0 0 0 .147 2.841l.012.1a26.186 26.186 0 0 0 2.623 8.7l.074.148a26.042 26.042 0 0 0 4.113 5.874l.064.07a14.879 14.879 0 0 0 1.342 1.349c.1.088.2.18.3.272.285.264.578.513.881.755l.158.129a26.485 26.485 0 0 0 2.666 1.885 3.918 3.918 0 0 1 1.162 1.08 7.314 7.314 0 0 0 .814.944 1.373 1.373 0 0 1 .331.476c-.01.292-.01.292-.141.423a1.419 1.419 0 0 1-.882-.226l-.144-.071a25.131 25.131 0 0 1-3.537-2.149l-.114-.082a25.442 25.442 0 0 1-1.494-1.164c-.115-.1-.233-.189-.35-.283-.3-.247-.582-.515-.865-.782l-.281-.261a19.54 19.54 0 0 1-1.191-1.2l-.224-.242a14.162 14.162 0 0 1-.683-.785q-.126-.156-.253-.31a26.349 26.349 0 0 1-2.681-3.924l-.084-.151a27.972 27.972 0 0 1-3.447-11.516l-.012-.165a26.22 26.22 0 0 1-.046-1.817v-.166A28.117 28.117 0 0 1-33.2.9l.02-.107a1.205 1.205 0 0 1 .377-.749 1.724 1.724 0 0 1 .703-.105z" transform="translate(1287.689 1597.526)" style="fill:#004f6c"/>
        <path data-name="Path 15433" d="m-26.256-3.844.129.05.424.17.147.059a26.989 26.989 0 0 1 5.875 3.281l.087.064c.5.369.987.758 1.465 1.159l.088.073a31.183 31.183 0 0 1 1.841 1.7l.167.165c1.018 1 1.018 1 1.056 1.492a.724.724 0 0 1-.61.155 3.7 3.7 0 0 1-2.713-1.45 6.924 6.924 0 0 0-.379-.347l-.269-.233c-.348-.306-.7-.6-1.072-.878l-.184-.138A27.321 27.321 0 0 0-23.68-.754l-.12-.066a24.674 24.674 0 0 0-2.972-1.368c-.554-.213-.554-.213-.715-.431a1.814 1.814 0 0 1 .087-1.193c.323-.381.747-.188 1.144-.032z" transform="translate(1316.358 1582.921)" style="fill:#004f6c"/>
        <path data-name="Path 15434" d="M-180.347-.725a.96.96 0 0 1 .282.706 1.5 1.5 0 0 1-.065.726 3.218 3.218 0 0 1-1.129.567 23.929 23.929 0 0 0-4.591 2.391l-.115.077-.21.144a2.334 2.334 0 0 1-1.212.445l-.154.012-.162.012-.166.012-.326.024-.38.031-.187.015-.158.014a.524.524 0 0 1-.318-.1.414.414 0 0 1 .1-.382 18.315 18.315 0 0 1 4.887-3.24l.12-.064a21.785 21.785 0 0 1 3.037-1.321l.116-.041a1.015 1.015 0 0 1 .631-.028z" transform="translate(1448.602 1579.646)" style="fill:#004f6c"/>
        <g data-name="Group 40983" transform="translate(1259.381 1573)">
            <path data-name="Path 15435" d="M28.418 16.967a6.759 6.759 0 1 0 6.759 6.759 6.758 6.758 0 0 0-6.759-6.759zm1.893 7.172C28.934 25.977 28 27.875 27.8 27.875s-.561-.9-1.658-2.335c-1.406-1.839-3.175-2.622-2.86-2.665 2.509-.35 4.319 1.984 4.319 1.984 1.649-2.476 5.52-4.642 5.773-4.44.123.1-1.69 1.881-3.064 3.72z" transform="translate(8.362 11.9)" style="fill:#004f6c"/>
            <circle data-name="Ellipse 676" cx="5.851" cy="5.851" r="5.851" transform="translate(14.404)" style="fill:#38b9db"/>
            <path data-name="Path 15436" d="M-280.252 0h.154a4.87 4.87 0 0 1 3.282 1.3 1.216 1.216 0 0 0 .873.462h.087a6.881 6.881 0 0 0 .866-.076l.169-.022.357-.047c.317-.042.634-.083.952-.123l.1-.012a47.576 47.576 0 0 1 8.2-.44h.1c2.8.13 5.582.535 8.358.909l.236.032 3.259.441.187.025.189.026.095.013.1.013.1.013.192.026q1.507.205 3.015.407l.821.11.116.016.578.078 1.245.167.853.114.493.066.455.061.24.032a3.146 3.146 0 0 1 2.236 1.1 3.325 3.325 0 0 1 .321.636l.042.09a2.7 2.7 0 0 1-.077 1.659 2.94 2.94 0 0 1-.165.276l-.046.07a2.5 2.5 0 0 1-1.563 1.1 7.355 7.355 0 0 1-2.058-.112l-.43-.059-.751-.1-1.2-.165-.421-.058-.107-.015-.772-.106q-1.8-.247-3.592-.488l-.137-.019-1.227-.166-1.758-.234-.758-.1-.594-.08-.548-.074-.2-.027-.271-.037-.152-.021a6.829 6.829 0 0 0-.757-.071h-.144c-.124.005-.124.005-.2.084a.872.872 0 0 0-.045.568 4.045 4.045 0 0 0 .276.556 5.772 5.772 0 0 1 .5 4.33 10.025 10.025 0 0 1-.548 1.355 1.24 1.24 0 0 0-.079.551v.619c0 1.08.027 2.159.054 3.238l.022.9.04 1.653.04 1.634v.1l.013.521.026 1.058v.107l.061 2.506.005.221q0 .166.008.332 0 .111.005.222t.005.222l.063 2.556v.111l.061 2.507v.107l.026 1.054.055 2.256.04 1.642.024.973.018.73q0 .146.007.292.02.773.025 1.547v.145a2.432 2.432 0 0 1-.765 1.856l-.072.075a3.069 3.069 0 0 1-.886.52l-.08.04a4.537 4.537 0 0 1-.2.01h-.127l-.581.008-.3.006a2.459 2.459 0 0 1-1.62-.344l-.105-.07a2.547 2.547 0 0 1-.413-.367l-.055-.054a2.718 2.718 0 0 1-.626-1.81l-.009-.161q-.015-.258-.027-.516l-.009-.17q-.03-.593-.057-1.187l-.024-.527-.042-.908-.066-1.436-.023-.494-.006-.124-.065-1.4-.006-.129q-.048-1.034-.1-2.069-.049-1.066-.1-2.131l-.061-1.311-.042-.9-.024-.517-.022-.474q0-.085-.008-.171a4.03 4.03 0 0 0-.151-1.11 4.18 4.18 0 0 0-.981-.09h-.245a1.3 1.3 0 0 0-.889.167 1.239 1.239 0 0 0-.1.513l-.005.094-.011.2-.016.3a2.5 2.5 0 0 0 .375 1.9 5 5 0 0 1 .842 3.607 4.968 4.968 0 0 1-1.265 2.639 1.555 1.555 0 0 0-.392 1.1l-.007.149-.007.162-.008.172-.016.369-.026.586-.075 1.665-.041.921-.022.486-.021.458c0 .055 0 .111-.007.166a3.443 3.443 0 0 1-.295 1.493l-.041.079a2.627 2.627 0 0 1-.976.984l-.1.063a2.583 2.583 0 0 1-1.363.21h-.441a2.445 2.445 0 0 1-1.892-.675l-.085-.08a2.615 2.615 0 0 1-.674-1.88v-.356c0-.136.006-.271.009-.407 0-.095 0-.19.006-.285q.014-.693.033-1.385c.018-.643.032-1.286.037-1.93v-.656a.717.717 0 0 0-.249-.562l-.072-.06-.084-.071q-.1-.078-.194-.154a5.064 5.064 0 0 1-1.886-3.408 5.171 5.171 0 0 1 1.124-3.762 6.037 6.037 0 0 1 1.179-1.059.919.919 0 0 0 .4-.468c.046-.451.051-.906.061-1.358l.006-.227.015-.619.016-.669.031-1.309.025-1.065v-.153q0-.154.007-.308l.067-2.807.061-2.558.016-.655v-.081l.051-2.142.007-.307v-.153l.025-1.062.031-1.3.016-.66.014-.606q0-.109.005-.218l.014-.687v-.56a.86.86 0 0 0-.088-.472 1.757 1.757 0 0 0-.98.012l-.08.014a.68.68 0 0 0-.476.257l-.05.1-.057.11-.059.117a5.172 5.172 0 0 1-2.988 2.627c-.178.052-.356.1-.536.14l-.1.022a4.6 4.6 0 0 1-.957.072h-.085a5.021 5.021 0 0 1-3.568-1.484l-.119-.133-.062-.07-.117-.137a.862.862 0 0 0-.541-.295 2.938 2.938 0 0 0-.459.038l-.139.017c-.16.02-.319.042-.479.064l-.184.025-1.019.141-.106.015-.538.076c-2.394.342-2.394.342-3.22-.217a2.6 2.6 0 0 1-1.057-1.606 5.198 5.198 0 0 1-.007-.414v-.148a2.25 2.25 0 0 1 .684-1.555l.1-.089.066-.065a2.14 2.14 0 0 1 1.029-.529l.088-.02c.364-.081.733-.128 1.1-.177l.4-.053.7-.093 1.118-.149.387-.051a2.289 2.289 0 0 0 1.42-.412c.071-.1.133-.2.195-.305a5.176 5.176 0 0 1 .524-.727l.083-.1A4.96 4.96 0 0 1-280.252 0zm-1.875 3.681a2.379 2.379 0 0 0-.419 1.765 2.487 2.487 0 0 0 .89 1.477 2.519 2.519 0 0 0 1.9.437 2.5 2.5 0 0 0 1.556-1.087 2.52 2.52 0 0 0 .233-1.9q-.044-.119-.095-.236l-.048-.112a2.431 2.431 0 0 0-1.433-1.219 2.445 2.445 0 0 0-2.585.873zm15.108 4.961a3.073 3.073 0 0 0-.7 2.229 3.143 3.143 0 0 0 1.223 2.122 3.135 3.135 0 0 0 2.271.541 3.158 3.158 0 0 0 2-1.287 3.13 3.13 0 0 0 .454-2.322 3.042 3.042 0 0 0-1.3-1.859 3.083 3.083 0 0 0-3.949.575zm-6.737 21.242a2.326 2.326 0 0 0-.53 1.6 2.477 2.477 0 0 0 .944 1.764 2.454 2.454 0 0 0 1.7.444 2.511 2.511 0 0 0 1.655-1.018 2.426 2.426 0 0 0 .338-1.844 2.56 2.56 0 0 0-1.169-1.524 2.385 2.385 0 0 0-2.938.577z" transform="translate(287.154 13.364)" style="fill:#38b9db"/>
        </g>
    </g>
</svg>
