<svg xmlns="http://www.w3.org/2000/svg" width="64" height="64" viewBox="0 0 64 64">
    <defs>
        <clipPath id="xwquh0f52a">
            <path data-name="Rectangle 17474" style="fill:#fff;stroke:#707070" d="M0 0h64v64H0z"/>
        </clipPath>
    </defs>
    <g data-name="Group 36" style="clip-path:url(#xwquh0f52a)">
        <g data-name="svgexport-18 (1)">
            <g data-name="13-Search">
                <path data-name="Path 15353" d="M36.037 2a20.037 20.037 0 1 0 20.037 20.037A20.037 20.037 0 0 0 36.037 2zm0 36.59A16.552 16.552 0 1 1 52.59 22.037 16.552 16.552 0 0 1 36.037 38.59z" transform="translate(1.926 4)" style="fill:#004f6c"/>
                <path data-name="Path 15354" d="M34.057 8a14.721 14.721 0 1 0 14.729 14.721A14.725 14.725 0 0 0 34.057 8zm-3.465 7.794a3.465 3.465 0 0 1 6.931 0v5.2a3.465 3.465 0 0 1-6.931 0zm7.8 15.587a.866.866 0 1 1 0 1.732h-8.667a.866.866 0 1 1 0-1.732h3.465v-3.524a6.929 6.929 0 0 1-6.065-6.867.866.866 0 0 1 1.733 0 5.2 5.2 0 0 0 10.4 0 .866.866 0 0 1 1.733 0 6.929 6.929 0 0 1-6.065 6.867v3.524zm-4.332-8.66a1.732 1.732 0 0 0 1.73-1.731v-5.2a1.733 1.733 0 0 0-3.465 0v5.2a1.732 1.732 0 0 0 1.732 1.731zM13.88 37.694a.867.867 0 0 0-1.23 0l-9.314 9.318A4.554 4.554 0 0 0 9.8 53.429l9.279-9.309a.866.866 0 0 0 0-1.23zm3.084-1.706-1.178 1.169 3.829 3.828 1.17-1.178a21.55 21.55 0 0 1-3.821-3.819z" transform="translate(3.987 3.227)" style="fill:#38b9db"/>
            </g>
        </g>
    </g>
</svg>
